<?xml version="1.0" encoding="utf-8"?>
<!-- Generator: Adobe Illustrator 14.0.0, SVG Export Plug-In  -->
<!DOCTYPE svg PUBLIC "-//W3C//DTD SVG 1.1//EN" "http://www.w3.org/Graphics/SVG/1.1/DTD/svg11.dtd" [
	<!ENTITY ns_flows "http://ns.adobe.com/Flows/1.0/">
]>
<svg version="1.1"
	 xmlns="http://www.w3.org/2000/svg" xmlns:xlink="http://www.w3.org/1999/xlink" xmlns:a="http://ns.adobe.com/AdobeSVGViewerExtensions/3.0/"
	 x="0px" y="0px" width="122px" height="198px" viewBox="-1 -20.891 122 198" enable-background="new -1 -20.891 122 198"
	 xml:space="preserve">
<defs>
</defs>
<path fill="#F4BB84" d="M119.288,111.093c0-8.814-6.863-15.961-15.329-15.961c-8.466,0-15.33,7.146-15.33,15.961
	c0,5.118,2.317,9.672,5.917,12.593c0.527,4.258,4.538,7.572,9.413,7.572s8.886-3.313,9.414-7.572
	C116.971,120.765,119.288,116.211,119.288,111.093z"/>
<path fill="#EAB18B" d="M99.203,123.686c-3.599-2.921-5.916-7.475-5.916-12.593c0-8.077,5.763-14.749,13.242-15.81
	c-0.684-0.096-1.38-0.151-2.088-0.151c-8.466,0-15.33,7.146-15.33,15.961c0,5.118,2.317,9.672,5.917,12.593
	c0.526,4.258,4.538,7.572,9.413,7.572c0.718,0,1.416-0.08,2.087-0.217C102.637,130.253,99.652,127.315,99.203,123.686z"/>
<ellipse fill="#F4BB84" cx="100.805" cy="131.146" rx="7.676" ry="6.46"/>
<path fill="#EAB18B" d="M106.261,129.924c0-1.75-0.831-3.336-2.174-4.499c2.745,0.983,4.669,3.274,4.669,5.945
	c0,3.567-3.437,6.46-7.676,6.46c-2.159,0-4.107-0.753-5.501-1.961c0.922,0.33,1.938,0.516,3.005,0.516
	C102.823,136.385,106.261,133.492,106.261,129.924z"/>
<path fill="#F4BB84" d="M32.561,110.982c0-8.815-7.29-15.963-16.281-15.963S0,102.167,0,110.982c0,5.118,2.461,9.67,6.283,12.592
	c0.56,4.259,4.82,7.571,9.997,7.571c5.178,0,9.438-3.312,9.997-7.572C30.1,120.652,32.561,116.1,32.561,110.982z"/>
<path fill="#EAB18B" d="M8.854,123.574c-3.822-2.922-6.283-7.474-6.283-12.592c0-8.392,6.605-15.266,14.995-15.908
	c-0.425-0.033-0.852-0.055-1.285-0.055C7.289,95.02,0,102.167,0,110.982c0,5.118,2.461,9.67,6.283,12.592
	c0.56,4.259,4.82,7.571,9.997,7.571c0.436,0,0.864-0.031,1.285-0.077C12.985,130.573,9.366,127.474,8.854,123.574z"/>
<path fill="#EAB18B" d="M17.565,131.068c0.422,0.046,0.849,0.077,1.285,0.077c0.492,0,0.973-0.039,1.446-0.096
	c-0.437-0.054-0.868-0.125-1.285-0.225C18.542,130.938,18.059,131.015,17.565,131.068z"/>
<path fill="#EAB18B" d="M20.296,95.086c-0.477-0.041-0.958-0.066-1.446-0.066c-0.433,0-0.86,0.021-1.285,0.055
	c0.488,0.036,0.97,0.095,1.445,0.174C19.434,95.179,19.862,95.124,20.296,95.086z"/>
<path fill="#EAB18B" d="M11.745,123.574c-3.822-2.922-6.284-7.474-6.284-12.592c0-7.903,5.859-14.46,13.549-15.734
	c-0.475-0.079-0.957-0.138-1.445-0.174c-8.39,0.643-14.995,7.517-14.995,15.908c0,5.118,2.461,9.67,6.283,12.592
	c0.513,3.899,4.131,6.999,8.712,7.494c0.493-0.054,0.977-0.131,1.446-0.243C15.131,129.899,12.202,127.054,11.745,123.574z"/>
<ellipse fill="#F4BB84" cx="20.433" cy="131.146" rx="8.152" ry="6.46"/>
<path fill="#EAB18B" d="M14.64,129.924c0-1.75,0.882-3.336,2.309-4.499c-2.916,0.983-4.959,3.274-4.959,5.945
	c0,3.567,3.65,6.46,8.153,6.46c2.292,0,4.361-0.753,5.843-1.961c-0.981,0.33-2.06,0.516-3.192,0.516
	C18.29,136.385,14.64,133.492,14.64,129.924z"/>
<path fill="#163D6B" d="M93.052,73.491c-1.267-1.757-2.663-3.413-4.19-4.939c-7.263-7.264-17.297-11.756-28.381-11.756
	c-11.083,0-21.116,4.492-28.379,11.756c-0.085,0.084-0.164,0.173-0.248,0.259C23.776,73.869,1.953,89.148,0.977,107.1
	c5.997,0.417,25.313,3.605,25.313,3.605l0.021-0.109c3.673,4.199,8.379,7.869,12.133,11.623c4.385,4.385,7.47,8.884,11.663,11.764
	l3.033,7.758v9.571c0,0-2.707-0.723-1.74,1.446c0.966,2.167,3.093,5.541,3.093,5.541s2.024,0.241,2.172-2.649
	c0.128-2.531-0.891-11.332-1.148-13.493h8.642c-0.238,2.161-1.184,10.962-1.064,13.493c0.137,2.891,2.013,2.649,2.013,2.649
	s1.97-3.374,2.866-5.541c0.896-2.169-1.611-1.446-1.611-1.446v-9.303l5.047-9.249h-0.265c5.413-4.432,9.798-11.321,14.4-15.923
	c2.634-2.635,5.338-4.519,7.716-6.378c4.981-0.755,20.125-3.014,25.447-3.359C117.891,93.057,103.439,80.65,93.052,73.491z"/>
<path fill="#0F2C49" d="M56.38,151.216c-0.287-3.465-0.774-7.658-0.941-9.06h2.12v-0.416l-3.032-7.758
	c-4.194-2.88-7.278-7.379-11.663-11.764c-3.754-3.754-8.46-7.424-12.133-11.623l-0.021,0.109c0,0-19.317-3.188-25.313-3.605
	c0.977-17.951,22.799-33.23,30.877-38.289c0.083-0.086,0.163-0.175,0.247-0.259c6.769-6.77,15.944-11.127,26.131-11.689
	c-0.745-0.042-1.494-0.066-2.249-0.066c-11.083,0-21.117,4.492-28.38,11.756c-0.084,0.084-0.164,0.173-0.248,0.259
	c-8.078,5.059-29.9,20.338-30.876,38.289c5.997,0.417,25.313,3.605,25.313,3.605l0.021-0.109c3.673,4.199,8.379,7.869,12.133,11.623
	c4.385,4.385,7.47,8.884,11.663,11.764l3.032,7.758v9.571c0,0-2.707-0.723-1.74,1.446c0.966,2.167,3.093,5.541,3.093,5.541
	s2.024,0.241,2.172-2.649c0.018-0.346,0.013-0.811-0.007-1.355c-0.285-0.537-0.551-1.066-0.761-1.536
	C55.321,151.639,55.799,151.292,56.38,151.216z"/>
<path fill="#0F2C49" d="M55.819,152.758c0.21,0.47,0.476,0.999,0.761,1.536c-0.032-0.86-0.105-1.929-0.2-3.078
	C55.799,151.292,55.321,151.639,55.819,152.758z"/>
<ellipse opacity="0.16" fill="#C6C7C8" cx="57.696" cy="161.839" rx="49.995" ry="5.692"/>
<path fill="#F4BB84" stroke="#CA9E64" stroke-width="0.4819" d="M88.639,22.861c0,0,0-0.01,0.001-0.017
	C88.641,22.848,88.641,22.852,88.639,22.861z"/>
<path fill="#F4BB84" stroke="#CA9E64" stroke-width="0.4819" d="M88.641,22.845C88.641,22.837,88.641,22.839,88.641,22.845
	L88.641,22.845z"/>
<path fill="#F4BB84" d="M91.15,26.337c-0.937,0-1.818,0.244-2.588,0.674c0.071-0.711,0.109-1.43,0.109-2.158
	c0-0.516-0.023-1.026-0.057-1.536c0.017-0.295,0.023-0.412,0.026-0.455l-0.11-0.541C87.116,9.785,75.328,0,60.993,0
	C48.02,0,37.131,8.015,34.133,18.831c-0.534,1.928-0.819,3.944-0.819,6.021c0,0.38,0.013,0.756,0.032,1.132h-0.002l0.004,0.071
	c0.003,0.05,0.005,0.101,0.008,0.15l0.042,0.755c-0.746-0.396-1.589-0.624-2.485-0.624c-3,0-5.433,2.506-5.433,5.597
	c0,3.092,2.433,5.598,5.433,5.598c1.119,0,2.159-0.349,3.023-0.946l1.682,30.067c0,0,19.77,18.924,51.402,0
	c-0.524-0.871,0.229-17.587,0.881-30.237c0.907,0.697,2.028,1.116,3.248,1.116c3,0,5.432-2.506,5.432-5.598
	C96.582,28.843,94.15,26.337,91.15,26.337z"/>
<path opacity="0.05" fill="#41281B" d="M26.483,31.934c0-2.763,1.945-5.053,4.502-5.509c-0.294-0.051-0.595-0.088-0.904-0.088
	c-3.001,0-5.434,2.506-5.434,5.597c0,3.092,2.432,5.598,5.434,5.598c0.316,0,0.625-0.03,0.927-0.085
	C28.441,37,26.483,34.706,26.483,31.934z"/>
<path opacity="0.05" fill="#41281B" d="M34.359,26.206c-0.003-0.05-0.005-0.101-0.009-0.15l-0.004-0.071h0.002
	c-0.019-0.376-0.032-0.752-0.032-1.132c0-2.077,0.283-4.094,0.818-6.021C38.059,8.283,48.485,0.403,61.032,0.019
	C60.741,0.01,60.452,0,60.159,0c-12.973,0-23.861,8.015-26.86,18.831c-0.534,1.928-0.817,3.944-0.817,6.021
	c0,0.38,0.013,0.756,0.032,1.132h-0.002l0.004,0.071c0.003,0.05,0.005,0.101,0.008,0.15l0.009,0.171
	c0.667,0.078,1.296,0.28,1.868,0.584L34.359,26.206z"/>
<path opacity="0.05" fill="#41281B" d="M31.008,37.446c0.295,0.052,0.598,0.085,0.908,0.085c0.423,0,0.836-0.051,1.231-0.146
	l-0.044-0.801C32.484,37.013,31.772,37.312,31.008,37.446z"/>
<path opacity="0.05" fill="#41281B" d="M32.533,26.377c-0.202-0.024-0.407-0.04-0.616-0.04c-0.318,0-0.628,0.034-0.932,0.088
	c0.56,0.099,1.092,0.277,1.581,0.536L32.533,26.377z"/>
<path opacity="0.68" fill="#F3CBA8" d="M83.63,25.367c0-0.432-0.019-0.859-0.048-1.284c0.031-0.54,0.019-0.332,0.019-0.332
	l-0.089-0.501C82.33,12.765,72.47,4.582,60.481,4.582c-10.85,0-19.957,6.702-22.465,15.749c-0.447,1.613-0.684,3.3-0.684,5.036
	c0,0.318,0.011,0.632,0.027,0.946h-0.002l0.002,0.061c0.003,0.041,0.005,0.084,0.008,0.125l1.892,33.829c0,0,16.535,15.828,42.991,0
	c-0.534-0.891,0.52-21.479,1.072-31.587C83.522,27.644,83.63,26.517,83.63,25.367z"/>
<circle cx="45.954" cy="28.58" r="2.244"/>
<circle cx="75.008" cy="28.58" r="2.244"/>
<path fill="#E8A46F" d="M54.261,42.043c0,0,5.196,5.434,13.227,0"/>
<circle fill="#FFFFFF" cx="74.584" cy="27.853" r="0.424"/>
<circle fill="#FFFFFF" cx="74.14" cy="28.292" r="0.26"/>
<circle fill="#FFFFFF" cx="45.208" cy="27.715" r="0.424"/>
<circle fill="#FFFFFF" cx="44.764" cy="28.153" r="0.261"/>
<path fill="#CB824B" d="M28.103,30.824c0,0,2.662-0.583,4.047,3.558"/>
<path fill="#CB824B" d="M93.016,30.342c0,0-2.569-0.582-3.905,3.558"/>
<path fill="#584A47" d="M68.096,152.275h8.246c0,0,15.379-4.439,12.757,3.614c-1.667,5.122-5.405,4.337-5.405,4.337l-15.397-2.405
	l-0.201,1.442h-2.448l-0.54-1.446"/>
<path fill="#3D3533" d="M74.013,154.722h-8.59l1.389-2.436h8.726c0,0,16.273-4.439,13.498,3.614
	c-0.453,1.319-1.055,2.244-1.695,2.895c0.059-0.147,0.115-0.301,0.17-0.459C90.284,150.281,74.013,154.722,74.013,154.722z"/>
<path fill="#584A47" d="M51.23,152.507h-8.273c0,0-15.429-4.438-12.798,3.614c1.672,5.123,5.423,4.337,5.423,4.337l15.446-2.404
	l0.202,1.441h2.455l0.542-1.446"/>
<path fill="#3D3533" d="M44.402,154.943h8.145l-1.317-2.436h-8.273c0,0-15.429-4.439-12.798,3.614c0.43,1.319,1,2.244,1.606,2.895
	c-0.055-0.147-0.109-0.301-0.161-0.46C28.974,150.503,44.402,154.943,44.402,154.943z"/>
<path opacity="0.55" fill="#F4BB84" d="M53.854,62.607c0,0,5.948,6.656,12.829,0"/>
<path fill="#41281B" d="M40.127,24.396c0,0,5.872-3.459,11.01,0v3.139c0,0-4.992-2.57-11.01,0V24.396z"/>
<path fill="#41281B" d="M69.521,24.396c0,0,5.873-3.459,11.009,0v3.139c0,0-4.99-2.57-11.009,0V24.396z"/>
<line fill="none" stroke="#D9DADB" stroke-width="0.9261" stroke-dasharray="2.3154" x1="44.9" y1="83.574" x2="57.559" y2="141.74"/>
<line fill="none" stroke="#D9DADB" stroke-width="0.9077" stroke-dasharray="2.2691" x1="75.026" y1="83.574" x2="63.497" y2="141.735"/>
<path fill="#F4BB84" d="M32.023,68.552c0,0,9.595,12.816,13.931,15.022c6.55,3.334,23.085,3.226,29.072-1.111
	c3.957-2.866,11.484-15.812,11.484-15.812s-39.065-5.445-51.068-1.086C34.375,65.953,32.023,68.552,32.023,68.552z"/>
<polygon fill="#41281B" points="58.086,60.053 60.328,65.16 62.498,60.053 "/>
<polygon points="66.363,142.491 53.14,142.222 51.803,139.003 68.266,139.003 "/>
<path fill="none" stroke="#D9DADB" stroke-width="0.4819" d="M62.918,140.747c0,1.115-0.903,2.02-2.02,2.02h-1.261
	c-1.116,0-2.02-0.904-2.02-2.02l0,0c0-1.116,0.904-2.02,2.02-2.02h1.261C62.015,138.728,62.918,139.631,62.918,140.747
	L62.918,140.747z"/>
<path fill="#D9DADB" d="M62.651,140.759c0,0.273-0.221,0.493-0.494,0.493h-1.97c-0.272,0-0.493-0.22-0.493-0.493l0,0
	c0-0.271,0.221-0.493,0.493-0.493h1.97C62.43,140.266,62.651,140.487,62.651,140.759L62.651,140.759z"/>
<polygon points="69.842,149.219 68.236,149.219 67.433,139.003 70.646,139.003 "/>
<rect x="98.405" y="121.408" width="4.915" height="25.07"/>
<rect x="99.634" y="119.648" width="2.458" height="3.519"/>
<rect x="99.106" y="123.167" fill="#3E3D40" width="3.628" height="24.132"/>
<rect x="98.932" y="125.414" width="1.93" height="6.437"/>
<g>
	<path fill="#FFFFFF" d="M82.735,107.036c-0.939,0-1.876-0.141-2.783-0.42c-4.981-1.533-7.787-6.834-6.254-11.815
		c1.229-3.993,4.859-6.676,9.033-6.676c0.94,0,1.876,0.142,2.784,0.421c4.981,1.533,7.787,6.834,6.254,11.814
		C90.54,104.354,86.91,107.036,82.735,107.036L82.735,107.036z"/>
	<path d="M82.73,88.639L82.73,88.639c0.889,0,1.774,0.134,2.633,0.397c4.71,1.45,7.364,6.463,5.915,11.174
		c-1.162,3.776-4.595,6.313-8.542,6.313c-0.888,0-1.774-0.134-2.632-0.397c-4.711-1.45-7.364-6.463-5.915-11.175
		C75.351,91.176,78.784,88.639,82.73,88.639 M82.73,87.612c-4.26,0-8.204,2.754-9.523,7.037c-1.619,5.262,1.333,10.838,6.594,12.457
		c0.977,0.301,1.963,0.443,2.934,0.443c4.26,0,8.205-2.753,9.523-7.038c1.618-5.26-1.334-10.837-6.594-12.456
		C84.688,87.755,83.701,87.612,82.73,87.612L82.73,87.612z"/>
</g>
<g>
	<path fill="#C6C7C8" d="M82.735,104.491c-0.687,0-1.371-0.104-2.034-0.307c-3.641-1.121-5.691-4.995-4.571-8.636
		c0.898-2.918,3.55-4.878,6.599-4.878c0.688,0,1.373,0.104,2.036,0.308c1.764,0.542,3.211,1.739,4.074,3.37s1.04,3.5,0.497,5.265
		C88.438,102.531,85.785,104.491,82.735,104.491L82.735,104.491z"/>
	<path d="M82.729,90.741L82.729,90.741c0.681,0,1.358,0.103,2.016,0.305c1.746,0.536,3.178,1.721,4.033,3.335
		c0.855,1.614,1.03,3.466,0.492,5.212c-0.89,2.888-3.516,4.829-6.535,4.829c-0.68,0-1.357-0.103-2.014-0.305
		c-3.604-1.109-5.633-4.944-4.524-8.548C77.086,92.682,79.711,90.741,82.729,90.741 M82.729,90.601
		c-2.982,0-5.743,1.928-6.666,4.928c-1.133,3.684,0.935,7.589,4.617,8.723c0.684,0.21,1.375,0.311,2.055,0.311
		c2.983,0,5.745-1.929,6.668-4.928c1.134-3.685-0.934-7.59-4.618-8.722C84.101,90.701,83.41,90.601,82.729,90.601L82.729,90.601z"/>
</g>
<line fill="none" stroke="#000000" stroke-width="0.0886" x1="82.696" y1="87.612" x2="82.696" y2="106.72"/>
<line fill="none" stroke="#000000" stroke-width="0.0886" x1="72.773" y1="97.165" x2="91.75" y2="97.165"/>
<g>
	<path fill="#C6C7C8" d="M82.736,103.212c-0.56,0-1.118-0.085-1.658-0.251c-2.967-0.913-4.638-4.069-3.725-7.036
		c0.732-2.378,2.894-3.977,5.379-3.977c0.56,0,1.117,0.085,1.657,0.251c2.967,0.914,4.638,4.07,3.725,7.037
		C87.382,101.614,85.221,103.212,82.736,103.212L82.736,103.212z"/>
	<path d="M82.732,92.006L82.732,92.006c0.554,0,1.105,0.083,1.64,0.248c2.937,0.904,4.591,4.029,3.688,6.966
		c-0.725,2.354-2.864,3.935-5.324,3.935c-0.554,0-1.106-0.083-1.641-0.248c-2.938-0.903-4.592-4.028-3.688-6.965
		C78.131,93.588,80.271,92.006,82.732,92.006 M82.731,91.892c-2.43,0-4.681,1.572-5.434,4.017c-0.924,3.002,0.761,6.184,3.763,7.107
		c0.557,0.172,1.121,0.253,1.675,0.253c2.43,0,4.68-1.57,5.433-4.016c0.924-3.002-0.761-6.184-3.763-7.108
		C83.848,91.973,83.286,91.892,82.731,91.892L82.731,91.892z"/>
</g>
<g>
	<path fill="#C6C7C8" d="M82.734,101.955c-0.435,0-0.868-0.065-1.288-0.194c-2.304-0.71-3.602-3.162-2.893-5.467
		c0.568-1.847,2.247-3.088,4.178-3.088c0.435,0,0.869,0.065,1.288,0.194c1.117,0.344,2.033,1.102,2.579,2.135
		c0.546,1.032,0.658,2.216,0.313,3.333C86.344,100.715,84.665,101.955,82.734,101.955L82.734,101.955z"/>
	<path d="M82.732,93.25L82.732,93.25c0.43,0,0.859,0.065,1.275,0.193c1.105,0.34,2.012,1.09,2.553,2.112
		c0.541,1.022,0.651,2.194,0.311,3.299c-0.562,1.828-2.225,3.057-4.136,3.057c-0.431,0-0.859-0.065-1.275-0.193
		c-2.281-0.702-3.565-3.129-2.864-5.41C79.158,94.479,80.82,93.25,82.732,93.25 M82.731,93.162c-1.888,0-3.637,1.22-4.221,3.119
		c-0.717,2.332,0.591,4.804,2.922,5.521c0.433,0.133,0.871,0.196,1.301,0.196c1.889,0,3.636-1.22,4.22-3.118
		c0.719-2.332-0.59-4.805-2.922-5.522C83.6,93.226,83.162,93.162,82.731,93.162L82.731,93.162z"/>
</g>
<path fill="#707173" d="M77.84,104.394c0-0.011-0.001-0.019-0.003-0.022c-0.017-0.062-0.044-0.172-0.08-0.327
	c-0.038-0.156-0.076-0.321-0.114-0.495c-0.038-0.175-0.074-0.343-0.106-0.499c-0.033-0.159-0.054-0.268-0.064-0.328
	c-0.06-0.326-0.079-0.63-0.058-0.913c0.021-0.284,0.042-0.56,0.063-0.829c0.021-0.269,0.021-0.542,0.001-0.821
	c-0.021-0.277-0.101-0.573-0.242-0.887c0.016-0.053,0.059-0.102,0.129-0.145c0.053-0.044,0.113-0.094,0.179-0.149
	c0.067-0.055,0.105-0.09,0.114-0.105l0.103-0.344c0.042-0.116,0.105-0.223,0.188-0.318c0.083-0.098,0.166-0.186,0.25-0.264
	c-0.004-0.008-0.01-0.021-0.017-0.036c-0.004-0.017-0.011-0.028-0.015-0.038c-0.046-0.085-0.107-0.14-0.183-0.165
	c-0.077-0.024-0.158-0.042-0.242-0.051c-0.085-0.01-0.164-0.023-0.234-0.039c-0.074-0.017-0.128-0.058-0.164-0.127
	c0.081-0.043,0.155-0.068,0.22-0.073c0.066-0.005,0.126-0.004,0.183,0.001c0.055,0.007,0.108,0.012,0.159,0.015
	c0.052,0.003,0.107-0.013,0.167-0.044c0.059-0.032,0.124-0.068,0.193-0.107c0.069-0.041,0.132-0.087,0.192-0.143
	c0.059-0.053,0.107-0.112,0.143-0.178c0.035-0.066,0.049-0.145,0.041-0.233l0.025-0.013l0.02-0.011c0.01,0,0.03,0.001,0.058,0.001
	c0.029,0.002,0.047,0,0.055-0.004c0.013-0.007,0.031-0.019,0.053-0.032c0.022-0.015,0.047-0.032,0.075-0.053
	c0.027-0.021,0.051-0.04,0.071-0.059c0.02-0.02,0.035-0.034,0.046-0.046l2.24-1.201c0.042,0.038,0.094,0.056,0.155,0.057
	s0.126-0.008,0.196-0.026s0.14-0.042,0.209-0.07c0.07-0.029,0.133-0.054,0.188-0.072c0.084-0.039,0.215-0.102,0.395-0.189
	c0.177-0.088,0.379-0.188,0.604-0.301c0.225-0.112,0.462-0.23,0.708-0.355c0.247-0.124,0.482-0.243,0.707-0.357
	c0.224-0.114,0.424-0.217,0.602-0.306c0.177-0.091,0.309-0.159,0.394-0.204l0.09-0.048c0.055-0.03,0.117-0.062,0.184-0.095
	c0.067-0.032,0.134-0.067,0.203-0.104l0.154-0.082l0.128-0.069c0.059-0.032,0.121-0.065,0.183-0.103
	c0.063-0.037,0.124-0.071,0.184-0.104l0.128-0.068c0.096-0.057,0.148-0.118,0.156-0.186c0.008-0.068,0.012-0.138,0.012-0.209
	c0-0.072,0.014-0.144,0.041-0.216c0.026-0.072,0.108-0.146,0.245-0.217c0.051-0.028,0.104-0.056,0.16-0.079
	c0.056-0.023,0.115-0.019,0.18,0.021c0.047,0.045,0.083,0.082,0.111,0.108c0.028,0.025,0.054,0.05,0.077,0.073
	c0.023,0.023,0.039,0.035,0.044,0.037c0.031,0.028,0.064,0.045,0.101,0.05c0.036,0.006,0.071,0.011,0.105,0.014
	c0.035,0.003,0.067,0.011,0.099,0.021c0.03,0.012,0.056,0.037,0.077,0.075c0.011,0.021,0.026,0.052,0.045,0.092
	c0.02,0.039,0.037,0.081,0.053,0.128c0.015,0.047,0.026,0.088,0.028,0.124c0.004,0.037-0.005,0.061-0.026,0.073l-3.584,1.922
	l0.083,0.047c-0.015,0.023-0.023,0.059-0.023,0.103c-0.001,0.044-0.001,0.09-0.001,0.137c0,0.045-0.001,0.087-0.003,0.125
	c-0.002,0.035-0.013,0.059-0.029,0.069l-2.196,1.177c-0.004,0.002-0.005,0.021-0.003,0.056c0.002,0.034,0.004,0.076,0.005,0.125
	c0.001,0.048,0.003,0.098,0.006,0.148c0.002,0.052,0.004,0.094,0.005,0.126c0,0.032,0.018,0.103,0.051,0.211
	c0.034,0.108,0.068,0.22,0.106,0.335c0.036,0.114,0.084,0.264,0.143,0.446c-0.083,0.038-0.154,0.077-0.214,0.114
	c-0.06,0.038-0.113,0.077-0.159,0.117c-0.047,0.042-0.089,0.09-0.126,0.144c-0.038,0.053-0.078,0.115-0.121,0.188
	c-0.047,0.087-0.057,0.181-0.03,0.281c0.026,0.101,0.063,0.194,0.108,0.279l0.049,0.089c0.015,0.03,0.026,0.055,0.03,0.075
	c0.056,0.146,0.064,0.29,0.023,0.432c-0.042,0.144-0.111,0.277-0.207,0.399c-0.096,0.123-0.207,0.233-0.334,0.332
	c-0.125,0.098-0.244,0.176-0.355,0.235c-0.218,0.116-0.398,0.176-0.541,0.175c-0.143,0-0.267-0.031-0.371-0.093
	c-0.105-0.062-0.196-0.141-0.272-0.233c-0.078-0.092-0.161-0.174-0.248-0.246s-0.187-0.115-0.298-0.133
	c-0.111-0.017-0.25,0.019-0.416,0.107c-0.23,0.125-0.382,0.284-0.456,0.479c-0.073,0.196-0.099,0.403-0.077,0.623
	c0.021,0.219,0.075,0.439,0.162,0.658c0.088,0.22,0.178,0.415,0.269,0.585c0.064,0.12,0.136,0.232,0.215,0.339
	c0.08,0.105,0.151,0.221,0.218,0.344l0.038,0.071c0.019,0.034,0.035,0.069,0.051,0.104c0.016,0.034,0.033,0.069,0.052,0.104
	l0.035,0.064c-0.006,0.091-0.045,0.173-0.116,0.247c-0.069,0.073-0.152,0.139-0.244,0.197c-0.092,0.057-0.188,0.108-0.284,0.152
	c-0.097,0.044-0.179,0.084-0.243,0.117l-0.108,0.059c-0.043,0.022-0.085,0.044-0.126,0.064c-0.042,0.02-0.082,0.039-0.121,0.06
	l-0.05,0.027c-0.013,0.007-0.036,0.017-0.071,0.03c-0.034,0.013-0.071,0.027-0.112,0.043s-0.079,0.032-0.115,0.045
	c-0.037,0.015-0.065,0.024-0.084,0.03c-0.035,0.007-0.084,0.007-0.147,0C77.901,104.448,77.859,104.428,77.84,104.394z
	 M80.639,100.499c0.178,0.066,0.389,0.033,0.632-0.097c0.081-0.043,0.148-0.082,0.202-0.115c0.053-0.035,0.101-0.073,0.145-0.115
	c0.043-0.042,0.084-0.089,0.123-0.141c0.038-0.05,0.082-0.113,0.13-0.188c-0.133,0.05-0.256,0.07-0.367,0.061
	c-0.112-0.008-0.216-0.04-0.311-0.092c-0.094-0.055-0.181-0.125-0.26-0.212s-0.151-0.184-0.215-0.292
	c-0.064,0.023-0.148,0.045-0.25,0.064c-0.103,0.019-0.186,0.01-0.25-0.028c-0.083,0.123-0.126,0.238-0.13,0.351
	c-0.003,0.111,0.028,0.229,0.094,0.353C80.308,100.282,80.461,100.433,80.639,100.499z M81.344,99.613
	c0.066,0.042,0.136,0.071,0.211,0.089c0.076,0.018,0.155,0.027,0.238,0.028c0.083,0.003,0.168,0.008,0.255,0.017l0.026-0.015
	c0.077-0.04,0.126-0.1,0.155-0.178c0.026-0.077,0.039-0.159,0.036-0.247c-0.002-0.085-0.016-0.172-0.039-0.258
	c-0.026-0.087-0.053-0.159-0.084-0.219c-0.058-0.106-0.129-0.186-0.218-0.237c-0.089-0.052-0.182-0.079-0.284-0.083
	c-0.101-0.004-0.206,0.01-0.312,0.04c-0.108,0.03-0.211,0.071-0.309,0.124c0.035,0.063,0.055,0.126,0.065,0.188
	c0.007,0.062,0.012,0.125,0.012,0.188c0,0.062,0.005,0.125,0.014,0.187c0.007,0.061,0.029,0.124,0.063,0.188
	C81.221,99.511,81.277,99.572,81.344,99.613z"/>
<path fill="#B6291C" d="M20.542,116.757c0,0,9.433,3.371-2.012,6.528c-11.445,3.157-13.062-9.8-10.79-12.814
	c2.272-3.015,6.505-11.046,8.707-11.931C18.649,97.655,24.681,113.676,20.542,116.757z"/>
<path fill="#92171B" d="M13.265,121.727c-5.062-1.822-6.15-8.487-5.152-11.698c-0.221,0.322-0.43,0.619-0.625,0.877
	c-2.273,3.015-0.656,15.973,10.79,12.814c2.426-0.669,3.913-1.349,4.75-2.002c-0.62,0.229-1.332,0.457-2.157,0.685
	C17.561,123.315,15.074,122.879,13.265,121.727z"/>
<path fill="#92171B" d="M23.899,119.917c-0.876,0.587-2.292,1.19-4.45,1.785c-2.517,0.695-4.555,0.61-6.185,0.024
	c1.81,1.152,4.296,1.589,7.606,0.676c0.825-0.228,1.537-0.456,2.157-0.685C23.839,121.085,24.043,120.474,23.899,119.917z"/>
<path fill="#92171B" d="M21.477,115.182c0.002-0.008,0.004-0.017,0.007-0.025c-0.009,0.007-0.015,0.014-0.023,0.019
	C21.461,115.175,21.468,115.178,21.477,115.182z"/>
<path fill="#92171B" d="M16.194,98.975c0.235-0.094,0.514,0.006,0.819,0.259c0.612-0.735,1.173-1.277,1.651-1.517
	c-0.493-0.604-0.946-0.9-1.3-0.758c-2.202,0.885-6.435,8.915-8.707,11.93c-0.221,0.294-0.404,0.682-0.546,1.14
	C10.469,106.567,14.18,99.784,16.194,98.975z"/>
<path fill="#92171B" d="M23.213,116.004c-0.098-0.057-0.194-0.111-0.29-0.163c-0.014,0.011-0.027,0.023-0.041,0.034
	C22.883,115.875,23.009,115.92,23.213,116.004z"/>
<path fill="#92171B" d="M13.265,121.727c-4.448-2.831-4.799-9.997-3.184-12.14c1.754-2.327,4.677-7.643,6.932-10.354
	c-0.305-0.253-0.583-0.353-0.819-0.259c-2.015,0.81-5.725,7.593-8.082,11.054C7.115,113.239,8.202,119.904,13.265,121.727z"/>
<path fill="#92171B" d="M24.364,104.777c0,0,2.426,20.11-11.863,10.985c-3.008-3.363-1.689-5.188-1.689-5.188
	s-1.515-3.688,6.652-13.257C17.464,97.318,28.222,99.479,24.364,104.777z"/>
<path fill="#B6291C" d="M22.535,103.88c0,0,2.066,17.116-8.836,12.603c12.952,7.257,10.665-11.704,10.665-11.704
	c2.341-3.214-0.697-5.273-3.449-6.396C22.929,99.587,24.352,101.386,22.535,103.88z"/>
<path fill="#92171B" d="M18.235,92.591c0.662-1.139,2.29-1.527,3.635-0.864l4.699,2.305c1.348,0.662,1.903,2.122,1.241,3.26
	l-1.494,2.574c-0.662,1.14-2.29,1.527-3.637,0.866l-4.698-2.308c-1.347-0.662-1.902-2.121-1.241-3.26L18.235,92.591z"/>
<path fill="#B6291C" d="M30.241,123.707c0,0-10.473,2.34,0.864,6.749c11.337,4.408,15.472-8.376,13.673-11.638
	c-1.799-3.264-4.693-11.759-6.823-12.884C35.825,104.809,26.507,120.173,30.241,123.707z"/>
<path fill="#92171B" d="M36.888,129.473c5.623-1.27,8.017-7.817,7.584-11.139c0.169,0.348,0.331,0.667,0.486,0.946
	c1.798,3.263-2.337,16.047-13.674,11.638c-2.403-0.934-3.823-1.775-4.575-2.521c0.603,0.296,1.304,0.604,2.12,0.921
	C32.109,130.592,34.783,130.426,36.888,129.473z"/>
<path fill="#92171B" d="M26.142,126.5c0.803,0.685,2.166,1.441,4.304,2.273c2.491,0.969,4.635,1.106,6.443,0.699
	c-2.105,0.953-4.779,1.119-8.058-0.155c-0.816-0.317-1.517-0.625-2.12-0.921C25.984,127.675,25.887,127.041,26.142,126.5z"/>
<path fill="#92171B" d="M29.563,122.029c0-0.008,0-0.018-0.001-0.026c0.006,0.008,0.012,0.016,0.02,0.021
	C29.582,122.024,29.574,122.025,29.563,122.029z"/>
<path fill="#92171B" d="M38.135,106.396c-0.227-0.12-0.536-0.052-0.903,0.169c-0.5-0.803-0.982-1.405-1.435-1.696
	c0.63-0.553,1.157-0.799,1.498-0.617c2.131,1.126,5.024,9.621,6.825,12.884c0.175,0.316,0.293,0.725,0.354,1.198
	C42.668,114.616,40.083,107.426,38.135,106.396z"/>
<path fill="#92171B" d="M27.598,122.66c0.112-0.045,0.223-0.089,0.333-0.13c0.013,0.011,0.024,0.026,0.037,0.037
	C27.967,122.567,27.826,122.6,27.598,122.66z"/>
<path fill="#92171B" d="M36.888,129.473c5.173-2.347,6.895-9.475,5.616-11.794c-1.391-2.521-3.431-8.156-5.272-11.113
	c0.367-0.221,0.676-0.289,0.903-0.169c1.948,1.029,4.534,8.22,6.338,11.938C44.905,121.655,42.511,128.203,36.888,129.473z"/>
<path fill="#92171B" d="M28.521,111.307c0,0-6.332,19.85,10.292,12.283c3.773-3.035,2.742-5.003,2.742-5.003
	s2.276-3.523-4.43-13.987C37.125,104.6,25.5,105.586,28.521,111.307z"/>
<path fill="#B6291C" d="M30.597,110.61c0,0-5.39,16.894,6.83,13.568c-14.876,5.843-8.907-12.87-8.907-12.87
	c-1.833-3.47,1.724-5.199,4.806-6.021C30.997,106.272,29.174,107.916,30.597,110.61z"/>
<path fill="#92171B" d="M37.215,99.787c-0.475-1.21-2.1-1.776-3.628-1.263l-5.333,1.795c-1.53,0.514-2.385,1.913-1.91,3.124
	l1.071,2.739c0.474,1.211,2.098,1.775,3.627,1.262l5.334-1.794c1.53-0.516,2.385-1.914,1.911-3.126L37.215,99.787z"/>
<path fill="none" stroke="#E2E2E2" stroke-width="0.4819" d="M16.741,95.164c0,0,2.305,6.042,9.575,4.701
	c7.271-1.341,4.667-30.343,5.135-32.019"/>
<path fill="none" stroke="#E2E2E2" stroke-width="0.4819" d="M38.417,104.6c0,0-9.932,4.32-11.003,1.583
	c-1.071-2.739,1.169-8.515,8.093-33.189"/>
<path fill="#F4BB84" d="M53.854,52.586c0,0,7.193,4.818,15.186-1.124l0,0c-0.342,0.406-4.188,3.448-14.813-1.124L53.854,52.586z"/>
<path fill="#FFFFFF" d="M54.227,50.338L54,51.706c0,0,5.417,2.136,11.263,1.08l0,0C65.263,52.786,57.557,52.383,54.227,50.338z"/>
</svg>
