<?xml version="1.0" encoding="utf-8"?>
<!-- Generator: Adobe Illustrator 14.0.0, SVG Export Plug-In  -->
<!DOCTYPE svg PUBLIC "-//W3C//DTD SVG 1.1//EN" "http://www.w3.org/Graphics/SVG/1.1/DTD/svg11.dtd" [
	<!ENTITY ns_flows "http://ns.adobe.com/Flows/1.0/">
]>
<svg version="1.1"
	 xmlns="http://www.w3.org/2000/svg" xmlns:xlink="http://www.w3.org/1999/xlink" xmlns:a="http://ns.adobe.com/AdobeSVGViewerExtensions/3.0/"
	 x="0px" y="0px" width="200px" height="200px" viewBox="-1.151 -0.582 200 200" enable-background="new -1.151 -0.582 200 200"
	 xml:space="preserve">
<defs>
</defs>
<circle fill="#FFFFFF" stroke="#707173" stroke-width="1.2854" cx="98.983" cy="98.983" r="98.341"/>
<text transform="matrix(0.9529 0.3033 -0.3033 0.9529 59.7085 177.104)" fill="#C6C7C8" font-family="'Foo'" font-size="2.6174">COLLEGUE</text>
<text transform="matrix(0.9529 0.3033 -0.3033 0.9529 63.689 178.5298)" fill="#C6C7C8" font-family="'Foo'" font-size="2.6174">COLLEGUE</text>
<path fill="#C6C7C8" d="M120.576,194.325c11.742-2.513,22.721-7.082,32.532-13.329c-1.267-7.257-4.002-14.008-7.876-19.947
	c0.167-0.162,0.334-0.324,0.499-0.49c0,0-6.212-8.283-9.387-9.939c-0.492-0.447-0.99-0.889-1.5-1.318
	c-0.413-3.911,0.501-24.065,1.304-39.643c0.025,0.001,0.051,0.002,0.076,0.003c1.196,0.898,2.662,1.438,4.256,1.438
	c4.002,0,7.247-3.342,7.247-7.466c0-4.022-3.092-7.292-6.959-7.449c-0.872-0.657-1.89-1.117-2.996-1.319
	c0.276-6.928-2.031-12.194-4.006-15.375h0.252c34.993-12.167,8.963-26.8,8.963-26.8s-6.14-12.118-22.733-17.212
	c-5.325-2.202-11.944-3.709-20.062-3.639c-8.833,0.047-19.441,1.96-32.092,6.891C16.127,58.988,59.56,76.837,62.502,78
	c-2.077,3.481-4.512,9.295-3.914,16.769c-0.137-0.009-0.271-0.026-0.41-0.026c-0.336,0-0.664,0.034-0.988,0.082
	c-0.337-0.05-0.679-0.083-1.03-0.083c-0.08,0-0.157,0.01-0.236,0.013c-0.064-0.002-0.128-0.011-0.193-0.011
	c-4.002,0-7.247,3.342-7.247,7.466c0,4.022,3.091,7.293,6.959,7.45c1.198,0.901,2.669,1.44,4.267,1.44
	c0.068,0,0.134-0.007,0.202-0.009l2.021,36.125c-9.483,7.703-16.086,18.689-18.119,31.634c1.261,0.773,2.542,1.531,3.835,2.279
	c-0.043,0.253-0.097,0.504-0.137,0.759c2.885,1.77,5.871,3.388,8.94,4.862l-0.021,0.058c0.234,0.093,0.476,0.188,0.72,0.282
	c10.127,4.766,21.184,7.881,32.826,8.995c0.089-0.377,0.181-0.75,0.271-1.123c0.042,0.002,0.084,0.004,0.125,0.006
	c-0.091,0.375-0.184,0.749-0.274,1.128c0.978,0.092,1.959,0.169,2.944,0.232c2.167,0.141,4.349,0.22,6.551,0.22
	c3.55,0,7.057-0.188,10.512-0.551c3.184-0.333,6.32-0.824,9.409-1.45c0.028,0.069,0.045,0.135,0.033,0.227
	c0.014-0.108,0.019-0.176,0.014-0.236c0.064-0.013,0.128-0.027,0.191-0.04c0.005,0.004,0.011,0.009,0.015,0.014
	c-0.002-0.005-0.004-0.01-0.006-0.015l0.019,0.028c-0.004-0.006-0.01-0.009-0.013-0.014c0.018,0.047,0.034,0.093,0.051,0.139
	c-0.155,0.071-0.271,0.124-0.271,0.124s0.119-0.044,0.277-0.106c0.018,0.047,0.033,0.091,0.05,0.137l-0.001,0.012
	c0-0.003,0.002-0.007,0.002-0.01c0.002-0.02,0.006-0.044,0.009-0.065c0.004-0.032,0.009-0.064,0.014-0.102
	c0.215-0.086,0.479-0.195,0.646-0.28c-0.008-0.005-0.009-0.012-0.016-0.017C120.548,194.335,120.562,194.33,120.576,194.325z"/>
<text transform="matrix(1 0 0 1 78.2573 137.5571)" fill="#58585A" font-family="'Foo'" font-size="69.4136">?</text>
</svg>
