<?xml version="1.0" encoding="utf-8"?>
<!-- Generator: Adobe Illustrator 14.0.0, SVG Export Plug-In  -->
<!DOCTYPE svg PUBLIC "-//W3C//DTD SVG 1.1//EN" "http://www.w3.org/Graphics/SVG/1.1/DTD/svg11.dtd" [
	<!ENTITY ns_flows "http://ns.adobe.com/Flows/1.0/">
]>
<svg version="1.1"
	 xmlns="http://www.w3.org/2000/svg" xmlns:xlink="http://www.w3.org/1999/xlink" xmlns:a="http://ns.adobe.com/AdobeSVGViewerExtensions/3.0/"
	 x="0px" y="0px" width="122px" height="198px" viewBox="-13.011 -7.943 122 198" enable-background="new -13.011 -7.943 122 198"
	 xml:space="preserve">
<defs>
</defs>
<ellipse opacity="0.16" fill="#C6C7C8" cx="50.141" cy="179.359" rx="49.089" ry="5.59"/>
<polyline fill="#6287BF" points="42.219,150.808 45.827,160.034 58.571,160.034 63.606,150.808 "/>
<ellipse fill="#F4BB84" cx="10.686" cy="138.55" rx="8.004" ry="6.343"/>
<path fill="#EAB18B" d="M4.997,137.351c0-1.72,0.866-3.275,2.267-4.418c-2.863,0.967-4.869,3.216-4.869,5.837
	c0,3.504,3.584,6.343,8.005,6.343c2.251,0,4.282-0.739,5.737-1.925c-0.963,0.325-2.022,0.506-3.135,0.506
	C8.581,143.693,4.997,140.854,4.997,137.351z"/>
<path fill="#6287BF" d="M1.051,126.558c0,0-2.366,3.431,0,7.926c2.366,4.495,20.192,4.495,20.032,0s-3.945-7.926-3.945-7.926H1.051z
	"/>
<path fill="#7B94C7" d="M21.083,92.381c0,0-19.322,15.369-20.032,34.177c3.548,0.355,14.979,3.075,14.979,3.075"/>
<path opacity="0.51" fill="#6287BF" d="M20.83,94.748l0.253-1.869c0,0-19.322,15.369-20.032,34.177
	c3.548,0.355,14.979,3.075,14.979,3.075l0.059-0.428c-3.378-0.782-10.482-2.38-13.146-2.647
	C3.506,112.14,15.777,99.387,20.83,94.748z"/>
<circle fill="#93AFD7" cx="52.875" cy="115.628" r="39.409"/>
<path opacity="0.34" fill="#6287BF" d="M52.875,149.332c-20.82,0-37.857-16.147-39.297-36.602c-0.066,0.929-0.111,1.862-0.111,2.808
	c0,21.766,17.645,39.409,39.409,39.409c21.765,0,39.409-17.644,39.409-39.409c0-0.945-0.046-1.879-0.111-2.808
	C90.732,133.185,73.696,149.332,52.875,149.332z"/>
<path fill="#283A59" d="M28.278,34.032c0,0-35.568-13.528,4.001-28.955c39.571-15.428,52.047,9.227,52.047,9.227
	s19.162,10.771-6.598,19.729"/>
<path fill="#1B2B3F" d="M36.859,5.076c8.323-3.245,15.442-4.712,21.502-5.013c-6.99-0.373-15.64,0.882-26.234,5.013
	c-39.57,15.427-4.001,28.955-4.001,28.955h4.731C32.857,34.031-2.712,20.503,36.859,5.076z"/>
<path fill="#F4BB84" stroke="#CA9E64" stroke-width="0.4732" d="M80.021,42.897c0,0,0-0.009,0.001-0.016
	C80.022,42.885,80.022,42.888,80.021,42.897z"/>
<path fill="#F4BB84" stroke="#CA9E64" stroke-width="0.4732" d="M80.022,42.882C80.022,42.875,80.022,42.876,80.022,42.882
	L80.022,42.882z"/>
<path fill="#F4BB84" d="M82.486,46.311c-0.92,0-1.785,0.24-2.54,0.661c0.068-0.697,0.106-1.404,0.106-2.118
	c0-0.507-0.022-1.009-0.057-1.508c0.018-0.291,0.023-0.405,0.026-0.448l-0.109-0.53c-1.387-12.31-12.961-21.918-27.037-21.918
	c-12.738,0-23.429,7.871-26.373,18.49c-0.524,1.894-0.803,3.874-0.803,5.914c0,0.372,0.012,0.741,0.031,1.11h-0.001l0.004,0.07
	c0.002,0.05,0.005,0.099,0.008,0.147l0.042,0.741c-0.732-0.389-1.56-0.612-2.44-0.612c-2.946,0-5.334,2.461-5.334,5.495
	c0,3.036,2.389,5.496,5.334,5.496c1.099,0,2.12-0.343,2.968-0.93l1.651,29.524c0,0,19.413,18.58,50.471,0
	c-0.515-0.857,0.225-17.269,0.865-29.69c0.89,0.686,1.991,1.096,3.188,1.096c2.946,0,5.333-2.46,5.333-5.496
	C87.819,48.771,85.432,46.311,82.486,46.311z"/>
<path opacity="0.05" fill="#41281B" d="M19.493,51.809c0-2.714,1.91-4.962,4.42-5.41c-0.289-0.051-0.584-0.086-0.887-0.086
	c-2.947,0-5.334,2.46-5.334,5.496c0,3.034,2.388,5.496,5.334,5.496c0.311,0,0.614-0.031,0.91-0.084
	C21.415,56.782,19.493,54.53,19.493,51.809z"/>
<path opacity="0.05" fill="#41281B" d="M27.226,46.184c-0.002-0.05-0.005-0.099-0.008-0.147l-0.003-0.07h0.002
	c-0.019-0.37-0.031-0.738-0.031-1.111c0-2.039,0.278-4.02,0.803-5.913c2.871-10.355,13.109-18.093,25.428-18.472
	c-0.285-0.008-0.569-0.018-0.857-0.018c-12.738,0-23.429,7.869-26.373,18.489c-0.525,1.894-0.803,3.874-0.803,5.913
	c0,0.373,0.013,0.741,0.031,1.111h-0.001l0.003,0.07c0.002,0.049,0.005,0.098,0.008,0.147l0.009,0.167
	c0.654,0.077,1.272,0.276,1.834,0.574L27.226,46.184z"/>
<path opacity="0.05" fill="#41281B" d="M27.796,56.374c-0.527,0.364-1.121,0.635-1.758,0.787l1.607,28.736
	c0,0,8.967,8.577,24.458,8.246c-14.382-0.33-22.656-8.246-22.656-8.246L27.796,56.374z"/>
<path opacity="0.05" fill="#41281B" d="M23.936,57.221c0.291,0.051,0.587,0.084,0.892,0.084c0.416,0,0.821-0.051,1.21-0.144
	l-0.043-0.787C25.385,56.795,24.687,57.088,23.936,57.221z"/>
<path opacity="0.05" fill="#41281B" d="M25.433,46.351c-0.199-0.024-0.4-0.038-0.605-0.038c-0.312,0-0.617,0.034-0.915,0.086
	c0.55,0.097,1.073,0.271,1.553,0.526L25.433,46.351z"/>
<path opacity="0.68" fill="#F3CBA8" d="M75.605,45.035c0-0.424-0.019-0.844-0.047-1.262c0.03-0.53,0.018-0.325,0.018-0.325
	l-0.087-0.492c-1.16-10.296-10.842-18.331-22.613-18.331c-10.654,0-19.595,6.582-22.058,15.465
	c-0.439,1.584-0.672,3.239-0.672,4.945c0,0.312,0.011,0.62,0.026,0.929H30.17l0.003,0.06c0.003,0.04,0.005,0.081,0.007,0.123
	l1.858,33.217c0,0,16.236,15.539,42.212,0c-0.525-0.874,0.51-21.09,1.052-31.015C75.499,47.27,75.605,46.164,75.605,45.035z"/>
<circle cx="38.611" cy="48.514" r="2.203"/>
<path fill="#E8A46F" d="M46.768,61.734c0,0,5.102,5.334,12.987,0"/>
<circle fill="#FFFFFF" cx="37.879" cy="47.665" r="0.416"/>
<circle fill="#FFFFFF" cx="37.443" cy="48.096" r="0.257"/>
<path fill="#5A88C1" d="M28.671,87.996c0,0,9.759,7.438,21.351,8.258c-1.156-0.105,0,11.467,0,11.467s-18.133-0.908-28.939-12.283
	C21.083,95.438,27.18,86.961,28.671,87.996z"/>
<path fill="#7B94C7" d="M27.961,85.896c0,0,9.759,7.438,21.351,8.258c-1.156-0.104,0,11.467,0,11.467s-18.133-0.907-28.939-12.282
	C20.374,93.339,26.47,84.862,27.961,85.896z"/>
<path opacity="0.51" fill="#6287BF" d="M22.266,93.338c0,0,3.898-5.419,6.223-7.06c-0.341-0.24-0.528-0.383-0.528-0.383
	c-1.491-1.033-7.588,7.442-7.588,7.442c10.806,11.376,28.939,12.283,28.939,12.283s-0.006-0.066-0.017-0.179
	C44.364,104.86,30.952,102.481,22.266,93.338z"/>
<path fill="#5A88C1" d="M77.592,87.996c0,0-10.176,7.438-22.263,8.258c1.205-0.105,0.37,11.466,0.37,11.466
	s18.538-0.907,29.805-12.282C85.504,95.438,79.147,86.961,77.592,87.996z"/>
<path fill="#41281B" d="M29.967,31.291c0,0-7.675,7.959-3.835,20.118l4.6,3.095c0,0-2.925-11.725,5.676-20.653"/>
<path fill="#41281B" d="M75.597,31.471c0,0,7.576,7.423,3.918,19.581l-4.55,3.159c0,0,2.567-11.724-5.623-20.652"/>
<path fill="#7B94C7" d="M78.333,85.896c0,0-10.176,7.438-22.264,8.259c1.206-0.104,0.371,11.467,0.371,11.467
	s18.537-0.907,29.804-12.283C86.244,93.338,79.887,84.861,78.333,85.896z"/>
<path opacity="0.2" fill="#231F20" d="M30.145,33.356c0,0,22.056,11.729,45.452,0C75.597,33.356,54.035,17.406,30.145,33.356z"/>
<path fill="#7C94C6" d="M30.145,31.471c0,0-9.06-11.021,22.73-12.793c0,0,31.737,2.242,22.722,12.793"/>
<path fill="#231F20" d="M29.967,31.291c0,0,22.233,11.909,45.63,0.18C75.597,31.471,53.857,15.341,29.967,31.291z"/>
<path fill="#413833" d="M56.364,105.621h0.076c0,0,4.069-9.664,0-11.486h-7.604c0,0-3.698,1.852,0.353,11.197
	c-1.911,5.714-6.448,20.358-6.448,30.63c0,0,1.295,7.808,9.992,15.141c0,0,7.515-8.043,10.354-14.904
	C63.087,136.198,59.377,113.98,56.364,105.621z"/>
<path opacity="0.22" fill="#1D1A18" d="M45.005,136.115c0-10.271,4.537-24.916,6.447-30.63c-4.051-9.346-0.353-11.197-0.353-11.197
	h-2.207c0,0-3.699,1.852,0.353,11.197c-1.911,5.714-6.448,20.358-6.448,30.63c0,0,1.295,7.808,9.992,15.141
	c0,0,0.372-0.397,0.979-1.089C46.18,143.17,45.005,136.115,45.005,136.115z"/>
<path fill="#CB824B" d="M21.083,50.718c0,0,2.614-0.572,3.974,3.493"/>
<path fill="#CB824B" d="M84.82,50.245c0,0-2.522-0.572-3.834,3.493"/>
<path fill="#6287BF" d="M45.667,159.561v9.463c0,0-2.657-0.71-1.708,1.42c0.949,2.129,3.037,5.44,3.037,5.44
	s1.988,0.237,2.133-2.602c0.144-2.839-1.184-13.722-1.184-13.722H45.667z"/>
<path fill="#584A47" d="M60.352,169.97h8.097c0,0,15.1-4.359,12.524,3.549c-1.636,5.029-5.306,4.259-5.306,4.259l-15.118-2.361
	l-0.197,1.415h-2.403l-0.531-1.42"/>
<path fill="#3D3533" d="M66.162,172.371h-8.435l1.363-2.391h8.568c0,0,15.978-4.36,13.254,3.548
	c-0.446,1.297-1.036,2.205-1.665,2.843c0.059-0.145,0.114-0.295,0.167-0.451C82.138,168.012,66.162,172.371,66.162,172.371z"/>
<path fill="#6287BF" d="M58.649,159.561v9.463c0,0,2.463-0.71,1.583,1.42c-0.879,2.129-2.814,5.44-2.814,5.44
	s-1.842,0.237-1.976-2.602c-0.135-2.839,1.097-13.722,1.097-13.722H58.649z"/>
<path fill="#584A47" d="M43.792,170.197h-8.124c0,0-15.149-4.359-12.566,3.549c1.642,5.029,5.325,4.259,5.325,4.259l15.167-2.361
	l0.199,1.414h2.41l0.532-1.419"/>
<path fill="#3D3533" d="M37.087,172.589h7.997l-1.292-2.392h-8.124c0,0-15.149-4.359-12.566,3.549
	c0.422,1.297,0.981,2.205,1.578,2.843c-0.055-0.145-0.107-0.295-0.158-0.451C21.938,168.229,37.087,172.589,37.087,172.589z"/>
<circle stroke="#000000" stroke-width="0.0191" cx="74.928" cy="115.142" r="10.064"/>
<path stroke="#000000" stroke-width="0.0318" stroke-linejoin="bevel" d="M66.858,111.664l0.156-0.271
	c0.106-0.488,0.426-0.982,0.695-1.38c0.279-0.376,0.858-0.991,1.09-1.2c-0.231,0.209-0.811,0.824-1.056,1.244
	c-0.148,0.405-0.502,0.863-0.703,1.384l-0.062,0.237L66.858,111.664z"/>
<path d="M67.984,109.67c0.24,0.03,0.532-0.03,0.688-0.158c-0.156,0.128-0.418,0.159-0.671,0.128L67.984,109.67z"/>
<path fill="none" stroke="#000000" stroke-width="0.0318" stroke-linejoin="bevel" d="M67.984,109.67
	c0.24,0.03,0.532-0.03,0.688-0.158c-0.156,0.128-0.418,0.159-0.671,0.128"/>
<path d="M67.653,110.252c0.3,0.076,0.533-0.042,0.771-0.097c-0.238,0.055-0.516,0.225-0.813,0.188L67.653,110.252z"/>
<path fill="none" stroke="#000000" stroke-width="0.0318" stroke-linejoin="bevel" d="M67.653,110.252
	c0.3,0.076,0.533-0.042,0.771-0.097c-0.238,0.055-0.516,0.225-0.813,0.188"/>
<path d="M67.093,111.12c0.226-0.054,0.595-0.079,0.72,0.008c-0.125-0.087-0.486-0.132-0.664-0.045L67.093,111.12z"/>
<path fill="none" stroke="#000000" stroke-width="0.0318" stroke-linejoin="bevel" d="M67.093,111.12
	c0.226-0.054,0.595-0.079,0.72,0.008c-0.125-0.087-0.486-0.132-0.664-0.045"/>
<path d="M67.319,110.859c-0.107-0.271-0.149-0.449-0.317-0.651c0.168,0.202,0.29,0.313,0.333,0.53L67.319,110.859z"/>
<path fill="none" stroke="#000000" stroke-width="0.0318" stroke-linejoin="bevel" d="M67.319,110.859
	c-0.107-0.271-0.149-0.449-0.317-0.651c0.168,0.202,0.29,0.313,0.333,0.53"/>
<path d="M67.671,110.106c0.057-0.244,0.057-0.244,0.078-0.415c-0.015-0.086-0.058-0.304-0.167-0.413
	c0.108,0.109,0.174,0.156,0.176,0.331c-0.018,0.152-0.024,0.189-0.057,0.456L67.671,110.106z"/>
<path fill="none" stroke="#000000" stroke-width="0.0318" stroke-linejoin="bevel" d="M67.671,110.106
	c0.057-0.244,0.057-0.244,0.078-0.415c-0.015-0.086-0.058-0.304-0.167-0.413c0.108,0.109,0.174,0.156,0.176,0.331
	c-0.018,0.152-0.024,0.189-0.057,0.456"/>
<path d="M68.171,109.564c0.026-0.21-0.062-0.478,0.103-0.817c-0.164,0.34-0.044,0.612-0.062,0.745L68.171,109.564z"/>
<path fill="none" stroke="#000000" stroke-width="0.0318" stroke-linejoin="bevel" d="M68.171,109.564
	c0.026-0.21-0.062-0.478,0.103-0.817c-0.164,0.34-0.044,0.612-0.062,0.745"/>
<path d="M78.758,106.582c-0.065-0.253-0.217-0.528-0.44-0.693c-0.249-0.068-0.405-0.051-0.516,0.006
	c-0.082,0.087-0.134,0.202-0.261,0.186c-0.159-0.019-0.277-0.156-0.397-0.269c-0.107-0.123-0.436-0.126-0.524,0.069
	c-0.023,0.185-0.172,0.235-0.275,0.294c-0.088-0.011-0.24,0.072-0.25,0.154c-0.014,0.107-0.095,0.232,0.089,0.41
	c0.066,0.183,0.231,0.203,0.283,0.358c0.042,0.172,0.022,0.33,0.205,0.424c0.167,0.048,0.39,0.018,0.448-0.137
	c0.168-0.018,0.293-0.026,0.365,0.169c0.063,0.104,0.127,0.261,0.33,0.286c0.258-0.007,0.47-0.05,0.58-0.101L78.758,106.582z"/>
<path fill="#E2001A" stroke="#FFFFFF" stroke-width="0.0443" d="M78.828,106.591c-0.135-0.262-0.223-0.529-0.416-0.689
	c-0.248-0.07-0.418-0.053-0.517,0.069c-0.137,0.016-0.148,0.104-0.307,0.085c-0.137,0.014-0.286-0.127-0.433-0.242
	c-0.12-0.125-0.332-0.073-0.396,0.138c-0.163,0.114-0.25,0.245-0.37,0.229c-0.056,0.083-0.146,0.083-0.226,0.158
	c-0.014,0.107-0.1,0.231,0.017,0.426c0.166,0.17,0.299,0.237,0.312,0.336c0.099,0.18,0.075,0.376,0.2,0.45
	c0.229,0.029,0.37-0.012,0.517-0.115c0.13-0.061,0.298-0.065,0.351,0.127c0.02,0.101,0.175,0.351,0.35,0.289
	c0.253,0.032,0.48-0.087,0.6-0.071L78.828,106.591z"/>
<path fill="#FFFFFF" stroke="#FFFFFF" stroke-width="0.0191" d="M78.347,107.038c-0.25-0.058-1.492-0.465-1.645-0.632
	c0.153,0.167,1.315,0.591,1.64,0.67L78.347,107.038z"/>
<path fill="#FFFFFF" stroke="#FFFFFF" stroke-width="0.0191" d="M77.727,106.902c-0.261,0.024-0.722,0.114-0.867,0.192
	c0.145-0.078,0.489-0.208,0.789-0.24L77.727,106.902z"/>
<path fill="#FFFFFF" stroke="#FFFFFF" stroke-width="0.0191" d="M78.574,107.266c-0.296,0.009-0.729,0.076-0.866,0.194
	c0.136-0.118,0.438-0.215,0.753-0.259L78.574,107.266z"/>
<path fill="#FFFFFF" stroke="#FFFFFF" stroke-width="0.0191" d="M77.573,106.845c-0.3-0.218-0.354-0.56-0.444-0.816
	c0.09,0.257,0.092,0.553,0.327,0.718L77.573,106.845z"/>
<path fill="#FFFFFF" stroke="#FFFFFF" stroke-width="0.0191" d="M78.483,107.029c-0.275-0.266-0.325-0.536-0.372-0.773
	c0.047,0.237,0.015,0.497,0.279,0.691L78.483,107.029z"/>
<path d="M80.1,109.106c-0.157,0.075-0.252,0.063-0.398-0.051c-0.046-0.096-0.029-0.229-0.029-0.229l-0.114-0.015
	c-0.232,0.106-0.436,0.081-0.54-0.068c-0.194-0.095-0.083-0.409-0.083-0.409c-0.066-0.034-0.175-0.24-0.175-0.24
	c-0.144,0.175-0.3,0.084-0.373-0.047c-0.134-0.018-0.129-0.056-0.117-0.15c0.018-0.146,0.083-0.356,0.083-0.356
	c-0.233-0.094-0.289-0.307-0.179-0.524c0.012-0.095,0.203-0.231,0.452-0.162c0,0-0.041-0.397,0.148-0.405
	c0.194-0.015,0.388,0.081,0.447,0.384c0,0,0.268-0.294,0.569-0.134c0.241,0.03,0.346,0.173,0.319,0.381l0.192,0.108
	c0,0,0.154-0.161,0.305-0.122c0.097,0.051,0.234,0.19,0.193,0.514c0,0,0.263,0.264,0.358,0.571L80.1,109.106z"/>
<path fill="#E2001A" stroke="#FFFFFF" stroke-width="0.0443" d="M80.148,109.183c-0.099,0.014-0.301-0.013-0.386-0.049
	c-0.082-0.12-0.038-0.263-0.038-0.263l-0.128-0.054c-0.156,0.167-0.34,0.092-0.549,0.021c-0.151-0.18-0.024-0.422-0.024-0.422
	c-0.086-0.081-0.182-0.189-0.182-0.189c-0.158,0.077-0.389,0.021-0.379-0.048c-0.121-0.016-0.164-0.182-0.151-0.276
	c0.018-0.146,0.14-0.35,0.14-0.35c-0.235-0.068-0.384-0.318-0.277-0.498c0.111-0.12,0.234-0.228,0.451-0.162
	c0,0,0.042-0.336,0.181-0.408c0.217-0.043,0.349,0.135,0.449,0.411c0,0,0.298-0.316,0.572-0.192
	c0.327,0.054,0.303,0.244,0.343,0.385l0.173,0.105c0,0,0.16-0.141,0.3-0.085c0.179,0.062,0.189,0.243,0.222,0.492
	c0,0,0.214,0.245,0.283,0.659L80.148,109.183z"/>
<path fill="#FFFFFF" stroke="#FFFFFF" stroke-width="0.0191" d="M80.741,108.562c-0.501-0.564-2.15-1.416-2.15-1.416
	s1.542,0.838,2.087,1.408L80.741,108.562z"/>
<path fill="#FFFFFF" stroke="#FFFFFF" stroke-width="0.0191" d="M79.481,107.684c-0.153,0.142-0.557,0.187-0.782,0.229
	c0.225-0.043,0.629-0.088,0.787-0.268L79.481,107.684z"/>
<path fill="#FFFFFF" stroke="#FFFFFF" stroke-width="0.0191" d="M80.304,108.25c-0.207,0.013-0.655,0.148-1.044,0.126
	c0.389,0.022,0.761-0.123,0.962-0.232L80.304,108.25z"/>
<path fill="#FFFFFF" stroke="#FFFFFF" stroke-width="0.0191" d="M80.678,108.555c-0.176,0.172-0.541,0.26-0.791,0.299
	c0.25-0.039,0.615-0.127,0.794-0.324L80.678,108.555z"/>
<path fill="#FFFFFF" stroke="#FFFFFF" stroke-width="0.0191" d="M79.288,107.595c-0.047-0.296-0.198-0.489-0.275-0.73
	c0.078,0.241,0.228,0.435,0.192,0.72L79.288,107.595z"/>
<path fill="#FFFFFF" stroke="#FFFFFF" stroke-width="0.0191" d="M80.056,107.975c-0.013-0.355-0.258-0.753-0.352-0.984
	c0.093,0.231,0.234,0.493,0.295,0.978L80.056,107.975z"/>
<path fill="#FFFFFF" stroke="#FFFFFF" stroke-width="0.0191" d="M80.69,108.46c0.026-0.46-0.258-0.862-0.334-1.021
	c0.076,0.158,0.245,0.507,0.267,0.89L80.69,108.46z"/>
<path d="M82.594,110.508c0.024-0.396,0.134-0.916-0.038-1.183c-0.103-0.251-0.212-0.2-0.281-0.216
	c-0.047,0.02-0.257-0.051-0.217-0.271c0.025-0.094,0.053-0.263-0.063-0.413c-0.163-0.144-0.226-0.151-0.338-0.126
	c-0.158,0.082-0.241,0.065-0.335-0.106c0.019-0.095,0.001-0.257-0.149-0.289c-0.003-0.026-0.092,0.02-0.168,0.171
	c-0.116,0.044-0.14,0.182-0.201,0.161c-0.146-0.012-0.164-0.175-0.208-0.232c-0.107-0.071-0.256-0.218-0.44-0.029
	c-0.104,0.219-0.167,0.553,0.073,0.589c0.247,0.082,0.217,0.227,0.103,0.212c-0.054,0.064-0.167,0.146-0.185,0.24
	c-0.012,0.089-0.067,0.378,0.071,0.401c0.129,0.106,0.209,0.033,0.341,0.159c0.044,0.115-0.026,0.106-0.049,0.238
	c-0.054,0.116-0.059,0.366,0.154,0.36c0.211,0.002,0.223-0.036,0.283,0.049c0.103,0.147,0.026,0.195-0.016,0.385
	c0.062,0.064,0.118,0.233,0.322,0.201c0.107,0.02,0.244,0.107,0.395,0.242L82.594,110.508z"/>
<path fill="#E2001A" stroke="#FFFFFF" stroke-width="0.0443" d="M82.594,110.508c0.075-0.39,0.185-0.903,0.031-1.161
	c-0.14-0.275-0.281-0.222-0.298-0.198c-0.1-0.02-0.273-0.079-0.247-0.237c0.04-0.162,0.065-0.312-0.086-0.486
	c-0.044-0.115-0.163-0.144-0.277-0.054c-0.169,0.017-0.311,0.07-0.27-0.15c-0.085-0.088-0.087-0.281-0.157-0.296
	c-0.119-0.021-0.168,0.011-0.288,0.149c-0.001,0.058-0.14,0.182-0.201,0.161c-0.026,0.01-0.127-0.164-0.156-0.192
	c-0.053-0.04-0.275-0.216-0.467-0.021c-0.13,0.171-0.136,0.512,0.092,0.547c0.247,0.141,0.208,0.238,0.172,0.221
	c-0.124,0.056-0.293,0.183-0.299,0.226c-0.029,0.118-0.067,0.378,0.054,0.496c0.208,0.032,0.346-0.04,0.353,0.103
	c0.061,0.13-0.021,0.068-0.044,0.2c-0.021,0.12-0.001,0.373,0.198,0.372c0.192,0.005,0.249-0.033,0.221,0.073
	c0.12,0.124,0.16,0.174,0.071,0.362c-0.007,0.051,0.049,0.22,0.253,0.188c0.107,0.02,0.281,0.118,0.433,0.247L82.594,110.508z"/>
<path fill="#FFFFFF" stroke="#FFFFFF" stroke-width="0.0191" d="M82.197,110.387c-0.551-1.086-1.278-1.653-1.629-1.93
	c0.351,0.276,1.013,0.842,1.536,1.95L82.197,110.387z"/>
<path fill="#FFFFFF" stroke="#FFFFFF" stroke-width="0.0191" d="M81.476,109.261c-0.149,0.064-0.665,0.076-1.011-0.09
	c0.346,0.166,0.786,0.106,0.928,0.086L81.476,109.261z"/>
<path fill="#FFFFFF" stroke="#FFFFFF" stroke-width="0.0191" d="M81.952,110.08c-0.255-0.013-0.707-0.051-0.95-0.21
	c0.243,0.159,0.662,0.153,0.932,0.11L81.952,110.08z"/>
<path fill="#FFFFFF" stroke="#FFFFFF" stroke-width="0.0191" d="M81.279,109.094c0.133-0.189-0.043-0.675-0.172-0.833
	c0.128,0.158,0.175,0.506,0.117,0.756L81.279,109.094z"/>
<path fill="#FFFFFF" stroke="#FFFFFF" stroke-width="0.0191" d="M81.757,109.74c0.049-0.29,0.086-0.685,0.062-0.951
	c0.025,0.267-0.035,0.588-0.102,0.913L81.757,109.74z"/>
<path fill="#FFFFFF" stroke="#FFFFFF" stroke-width="0.0191" d="M82.141,110.419c0.04-0.253,0.073-0.629,0.056-0.895
	c0.018,0.266-0.04,0.568-0.094,0.844L82.141,110.419z"/>
<path d="M73.165,105.986c0.125-0.229,0.342-0.46,0.599-0.562c0.257-0.007,0.405,0.051,0.498,0.133
	c0.058,0.104,0.081,0.229,0.207,0.246c0.16,0.02,0.307-0.084,0.453-0.163c0.133-0.093,0.452-0.014,0.489,0.197
	c-0.023,0.183,0.107,0.271,0.194,0.353c0.089,0.011,0.214,0.131,0.204,0.213c-0.013,0.107,0.034,0.248-0.188,0.375
	c-0.11,0.159-0.275,0.139-0.362,0.275c-0.084,0.157-0.105,0.315-0.303,0.361c-0.175,0.003-0.383-0.08-0.4-0.244
	c-0.16-0.059-0.278-0.1-0.396,0.072c-0.088,0.086-0.189,0.222-0.391,0.195c-0.249-0.069-0.442-0.165-0.536-0.241L73.165,105.986z"/>
<path fill="#E2001A" stroke="#FFFFFF" stroke-width="0.0443" d="M73.095,105.978c0.195-0.22,0.348-0.458,0.573-0.564
	c0.258-0.008,0.418,0.053,0.484,0.195c0.128,0.049,0.117,0.138,0.275,0.157c0.129,0.049,0.31-0.051,0.479-0.126
	c0.147-0.092,0.339,0.011,0.351,0.23c0.129,0.15,0.181,0.3,0.302,0.314c0.034,0.094,0.12,0.119,0.179,0.21
	c-0.014,0.107,0.039,0.25-0.123,0.408c-0.202,0.123-0.348,0.156-0.384,0.247c-0.141,0.15-0.167,0.347-0.307,0.388
	c-0.227-0.029-0.353-0.103-0.471-0.24c-0.111-0.091-0.272-0.138-0.372,0.037c-0.043,0.091-0.256,0.296-0.41,0.192
	c-0.253-0.032-0.444-0.204-0.564-0.22L73.095,105.978z"/>
<path fill="#FFFFFF" stroke="#FFFFFF" stroke-width="0.0191" d="M73.45,106.53c0.256,0.007,1.561-0.079,1.75-0.204
	c-0.189,0.125-1.42,0.245-1.755,0.242L73.45,106.53z"/>
<path fill="#FFFFFF" stroke="#FFFFFF" stroke-width="0.0191" d="M74.083,106.552c0.247,0.09,0.672,0.291,0.793,0.402
	c-0.121-0.111-0.422-0.322-0.705-0.43L74.083,106.552z"/>
<path fill="#FFFFFF" stroke="#FFFFFF" stroke-width="0.0191" d="M73.172,106.694c0.286,0.081,0.688,0.255,0.793,0.402
	c-0.104-0.147-0.373-0.317-0.666-0.438L73.172,106.694z"/>
<path fill="#FFFFFF" stroke="#FFFFFF" stroke-width="0.0191" d="M74.247,106.534c0.346-0.137,0.482-0.454,0.633-0.679
	c-0.151,0.225-0.226,0.511-0.497,0.612L74.247,106.534z"/>
<path fill="#FFFFFF" stroke="#FFFFFF" stroke-width="0.0191" d="M73.32,106.489c0.333-0.191,0.448-0.44,0.553-0.658
	c-0.105,0.218-0.138,0.478-0.443,0.601L73.32,106.489z"/>
<path d="M71.238,108.099c0.134,0.112,0.229,0.125,0.4,0.05c0.068-0.082,0.085-0.215,0.085-0.215l0.114,0.015
	c0.198,0.16,0.402,0.186,0.538,0.067c0.211-0.044,0.183-0.375,0.183-0.375c0.072-0.018,0.229-0.19,0.229-0.19
	c0.097,0.205,0.271,0.156,0.375,0.047c0.132,0.018,0.138-0.021,0.15-0.116c0.018-0.146,0.008-0.366,0.008-0.366
	c0.249-0.032,0.355-0.225,0.302-0.463c0.012-0.095-0.139-0.275-0.396-0.269c0,0,0.138-0.375-0.043-0.43
	c-0.186-0.062-0.397-0.019-0.529,0.261c0,0-0.187-0.352-0.519-0.271c-0.24-0.03-0.377,0.08-0.403,0.29l-0.213,0.057
	c0,0-0.111-0.194-0.265-0.194c-0.107,0.024-0.273,0.126-0.314,0.449c0,0-0.32,0.191-0.491,0.466L71.238,108.099z"/>
<path fill="#E2001A" stroke="#FFFFFF" stroke-width="0.0443" d="M71.173,108.16c0.091,0.038,0.294,0.063,0.386,0.049
	c0.108-0.096,0.102-0.244,0.102-0.244l0.138-0.021c0.11,0.2,0.306,0.174,0.527,0.156c0.191-0.137,0.128-0.402,0.128-0.402
	c0.104-0.057,0.224-0.139,0.224-0.139c0.133,0.114,0.37,0.117,0.38,0.048c0.12,0.015,0.203-0.135,0.215-0.229
	c0.018-0.146-0.049-0.374-0.049-0.374c0.245-0.007,0.451-0.213,0.393-0.413c-0.078-0.145-0.17-0.279-0.397-0.269
	c0,0,0.043-0.336-0.072-0.44c-0.2-0.097-0.373,0.043-0.538,0.285c0,0-0.21-0.38-0.506-0.327c-0.33-0.028-0.355,0.161-0.429,0.287
	l-0.194,0.06c0,0-0.119-0.176-0.27-0.157c-0.189,0.016-0.243,0.188-0.336,0.421c0,0-0.268,0.186-0.438,0.569L71.173,108.16z"/>
<path fill="#FFFFFF" stroke="#FFFFFF" stroke-width="0.0191" d="M70.752,107.412c0.626-0.423,2.436-0.838,2.436-0.838
	s-1.702,0.429-2.372,0.846L70.752,107.412z"/>
<path fill="#FFFFFF" stroke="#FFFFFF" stroke-width="0.0191" d="M72.19,106.873c0.114,0.176,0.494,0.319,0.7,0.417
	c-0.206-0.098-0.586-0.241-0.695-0.454L72.19,106.873z"/>
<path fill="#FFFFFF" stroke="#FFFFFF" stroke-width="0.0191" d="M71.253,107.218c0.198,0.064,0.598,0.308,0.981,0.382
	c-0.383-0.074-0.707-0.308-0.875-0.465L71.253,107.218z"/>
<path fill="#FFFFFF" stroke="#FFFFFF" stroke-width="0.0191" d="M70.816,107.42c0.128,0.21,0.459,0.386,0.691,0.486
	c-0.231-0.101-0.563-0.276-0.688-0.512L70.816,107.42z"/>
<path fill="#FFFFFF" stroke="#FFFFFF" stroke-width="0.0191" d="M72.401,106.836c0.118-0.275,0.311-0.425,0.447-0.639
	c-0.136,0.214-0.329,0.363-0.364,0.648L72.401,106.836z"/>
<path fill="#FFFFFF" stroke="#FFFFFF" stroke-width="0.0191" d="M71.562,107.012c0.1-0.34,0.438-0.664,0.584-0.864
	c-0.146,0.2-0.348,0.419-0.527,0.872L71.562,107.012z"/>
<path fill="#FFFFFF" stroke="#FFFFFF" stroke-width="0.0191" d="M70.828,107.325c0.088-0.451,0.464-0.771,0.577-0.905
	c-0.113,0.134-0.363,0.431-0.479,0.795L70.828,107.325z"/>
<path d="M68.475,108.837c0.075-0.39,0.097-0.921,0.33-1.136c0.162-0.217,0.256-0.141,0.327-0.139c0.041,0.03,0.261,0.013,0.277-0.21
	c0-0.097,0.014-0.269,0.165-0.385c0.192-0.098,0.255-0.09,0.358-0.038c0.132,0.12,0.215,0.123,0.35-0.021
	c0.006-0.095,0.063-0.25,0.217-0.243c0.009-0.024,0.084,0.043,0.121,0.208c0.102,0.071,0.09,0.211,0.155,0.207
	c0.145,0.024,0.204-0.129,0.259-0.173c0.122-0.044,0.303-0.149,0.435,0.08c0.047,0.237,0.024,0.575-0.218,0.552
	c-0.26,0.018-0.266,0.166-0.151,0.18c0.035,0.075,0.125,0.184,0.12,0.279c-0.012,0.089-0.029,0.382-0.169,0.372
	c-0.151,0.07-0.21-0.021-0.37,0.068c-0.07,0.101,0,0.109-0.011,0.243c0.023,0.125-0.033,0.369-0.239,0.312
	c-0.206-0.053-0.207-0.091-0.286-0.024c-0.138,0.118-0.075,0.185-0.081,0.377c-0.077,0.048-0.171,0.196-0.361,0.115
	c-0.108-0.008-0.263,0.044-0.443,0.137L68.475,108.837z"/>
<path fill="#E2001A" stroke="#FFFFFF" stroke-width="0.0443" d="M68.475,108.837c0.024-0.396,0.045-0.921,0.259-1.132
	c0.202-0.231,0.327-0.145,0.336-0.119c0.102,0.007,0.284-0.009,0.297-0.169c0.002-0.166,0.016-0.318,0.206-0.449
	c0.07-0.101,0.192-0.098,0.28,0.016c0.16,0.06,0.284,0.146,0.3-0.078c0.104-0.063,0.153-0.25,0.225-0.248
	c0.121,0.009,0.16,0.052,0.242,0.217c-0.013,0.058,0.09,0.211,0.155,0.207c0.024,0.016,0.164-0.127,0.199-0.149
	c0.06-0.023,0.32-0.14,0.458,0.098c0.084,0.196,0.004,0.527-0.226,0.505c-0.272,0.074-0.261,0.179-0.221,0.172
	c0.105,0.084,0.24,0.248,0.234,0.293c-0.003,0.122-0.029,0.382-0.176,0.467c-0.209-0.02-0.325-0.124-0.368,0.012
	c-0.091,0.111,0.005,0.071-0.006,0.205c-0.01,0.121-0.091,0.361-0.284,0.312c-0.188-0.043-0.233-0.094-0.234,0.016
	c-0.146,0.091-0.196,0.13-0.157,0.334c-0.007,0.051-0.102,0.199-0.292,0.118c-0.108-0.008-0.302,0.045-0.48,0.132L68.475,108.837z"
	/>
<path fill="#FFFFFF" stroke="#FFFFFF" stroke-width="0.0191" d="M68.889,108.818c0.804-0.915,1.648-1.284,2.057-1.465
	c-0.409,0.181-1.192,0.564-1.973,1.508L68.889,108.818z"/>
<path fill="#FFFFFF" stroke="#FFFFFF" stroke-width="0.0191" d="M69.865,107.905c0.13,0.101,0.627,0.24,1.003,0.166
	c-0.376,0.074-0.786-0.094-0.92-0.148L69.865,107.905z"/>
<path fill="#FFFFFF" stroke="#FFFFFF" stroke-width="0.0191" d="M69.202,108.581c0.251,0.051,0.698,0.127,0.975,0.032
	c-0.276,0.095-0.681-0.015-0.931-0.123L69.202,108.581z"/>
<path fill="#FFFFFF" stroke="#FFFFFF" stroke-width="0.0191" d="M70.099,107.793c-0.082-0.216,0.209-0.643,0.373-0.763
	c-0.164,0.12-0.294,0.444-0.301,0.701L70.099,107.793z"/>
<path fill="#FFFFFF" stroke="#FFFFFF" stroke-width="0.0191" d="M69.476,108.3c0.024-0.292,0.086-0.684,0.176-0.936
	c-0.09,0.252-0.111,0.577-0.128,0.91L69.476,108.3z"/>
<path fill="#FFFFFF" stroke="#FFFFFF" stroke-width="0.0191" d="M68.934,108.863c0.026-0.255,0.086-0.627,0.169-0.88
	c-0.083,0.253-0.103,0.56-0.118,0.841L68.934,108.863z"/>
<path d="M83.243,113.626l-0.071-0.304c-0.054-0.542-0.251-1.12-0.393-1.523c-0.079-0.441-0.574-1.16-0.747-1.426
	c0.173,0.266,0.595,1.001,0.708,1.421c0.112,0.399,0.362,1.017,0.395,1.522l0.001,0.297L83.243,113.626z"/>
<path d="M82.622,111.411c-0.224-0.027-0.487-0.233-0.674-0.38C82.135,111.178,82.372,111.343,82.622,111.411L82.622,111.411z"/>
<path d="M82.842,111.948c-0.388,0.061-0.601-0.076-0.697-0.184c0.096,0.107,0.382,0.388,0.712,0.372L82.842,111.948z"/>
<path d="M83.087,113.021c-0.157-0.129-0.498-0.236-0.645-0.19c0.147-0.046,0.496-0.002,0.637,0.15L83.087,113.021z"/>
<path d="M83.082,112.653c0.064-0.203,0.186-0.407,0.344-0.483c-0.158,0.076-0.272,0.223-0.463,0.456L83.082,112.653z"/>
<path d="M82.848,111.904c-0.017-0.272-0.048-0.277,0.007-0.463c0.059-0.058,0.195-0.272,0.237-0.401
	c-0.042,0.129-0.165,0.237-0.232,0.364c-0.041,0.065-0.055,0.185-0.087,0.438L82.848,111.904z"/>
<path d="M82.509,111.225c0.017-0.134,0.102-0.451,0.099-0.779c0.003,0.328-0.066,0.525-0.088,0.696L82.509,111.225z"/>
<path d="M83.562,111.859c0.152-0.238,0.228-0.486,0.214-0.733c-0.163-0.238-0.258-0.303-0.435-0.325
	c-0.146-0.018-0.235,0.022-0.268-0.117c-0.139-0.126-0.12-0.272-0.134-0.479c0.021-0.159-0.216-0.323-0.397-0.212
	c-0.189,0.016-0.328,0.043-0.387-0.049c-0.119-0.014-0.249-0.062-0.322-0.04c-0.048,0.078-0.229,0.094-0.211,0.302
	c-0.027,0.221-0.009,0.378-0.058,0.456c-0.067,0.178-0.168,0.358-0.107,0.501c0.06,0.182,0.262,0.207,0.396,0.224
	c0.121,0.016,0.274,0.118,0.184,0.281c-0.127,0.235-0.15,0.418,0.045,0.5c0.164,0.183,0.312,0.336,0.471,0.355L83.562,111.859z"/>
<path fill="#E2001A" stroke="#FFFFFF" stroke-width="0.0443" d="M83.612,112.02c0.095-0.245,0.224-0.596,0.168-0.821
	c-0.097-0.302-0.23-0.318-0.389-0.339c-0.095-0.012-0.203-0.026-0.292-0.089c-0.146-0.102-0.125-0.272-0.133-0.467
	c0.027-0.215-0.218-0.316-0.43-0.272c-0.144,0.065-0.301,0.045-0.392-0.005c-0.028-0.087-0.204-0.109-0.247-0.076
	c-0.113,0.031-0.219,0.095-0.245,0.298c-0.031,0.253-0.048,0.386-0.067,0.538c-0.05,0.098-0.19,0.233-0.13,0.376
	c0.06,0.182,0.258,0.239,0.385,0.307c0.19,0.023,0.309,0.148,0.219,0.311c-0.081,0.131-0.111,0.371,0.006,0.508
	c0.172,0.119,0.36,0.258,0.546,0.314L83.612,112.02z"/>
<path fill="#FFFFFF" stroke="#FFFFFF" stroke-width="0.0191" d="M82.947,111.987c-0.128-0.261-0.703-1.408-0.767-1.673
	C82.244,110.579,82.75,111.718,82.947,111.987L82.947,111.987z"/>
<path fill="#FFFFFF" stroke="#FFFFFF" stroke-width="0.0191" d="M82.652,111.423c-0.203-0.136-0.572-0.316-0.8-0.346
	c0.228,0.029,0.545,0.069,0.692,0.222L82.652,111.423z"/>
<path fill="#FFFFFF" stroke="#FFFFFF" stroke-width="0.0191" d="M83.005,112.284c-0.258-0.239-0.559-0.412-0.83-0.446
	c0.271,0.034,0.544,0.12,0.766,0.302L83.005,112.284z"/>
<path fill="#FFFFFF" stroke="#FFFFFF" stroke-width="0.0191" d="M82.549,111.262c0.012-0.289,0.108-0.546,0.261-0.784
	c-0.152,0.238-0.303,0.354-0.249,0.688L82.549,111.262z"/>
<path fill="#FFFFFF" stroke="#FFFFFF" stroke-width="0.0191" d="M83.145,112.058c-0.068-0.325,0.084-0.672,0.14-0.801
	c-0.055,0.129-0.284,0.307-0.235,0.691L83.145,112.058z"/>
<path d="M82.847,114.723c-0.215-0.131-0.218-0.215-0.243-0.328c0.018-0.133,0.079-0.208,0.079-0.208l0.003-0.135
	c-0.253-0.032-0.43-0.163-0.444-0.352c0-0.206,0.271-0.307,0.271-0.307c0.019-0.152,0.04-0.323,0.04-0.323
	c-0.228-0.029-0.234-0.185-0.292-0.295c-0.066-0.04,0.02-0.152,0.101-0.237c0.04-0.111,0.279-0.178,0.279-0.178
	c-0.08-0.228-0.011-0.465,0.158-0.488c0.172-0.088,0.413-0.057,0.444,0.152c0,0,0.27-0.345,0.45-0.149
	c0.178,0.132,0.223,0.28,0.021,0.498c0,0,0.418,0.053,0.574,0.292c0.151,0.23,0.011,0.368-0.023,0.538l-0.006,0.159
	c0,0,0.251,0.052,0.309,0.207c0.065,0.143,0,0.257-0.166,0.493c0,0-0.053,0.418-0.19,0.646L82.847,114.723z"/>
<path fill="#E2001A" stroke="#FFFFFF" stroke-width="0.0443" d="M82.843,114.754c-0.142-0.051-0.219-0.208-0.208-0.284
	c-0.013-0.208,0.038-0.201,0.038-0.201l0.006-0.146c-0.254-0.032-0.398-0.16-0.436-0.422c0.015-0.126,0.264-0.257,0.264-0.257
	c0.017-0.132,0.037-0.298,0.037-0.298c-0.224-0.066-0.234-0.189-0.294-0.268c0.017-0.134,0.017-0.134,0.134-0.306
	c0.047-0.064,0.251-0.148,0.251-0.148c-0.04-0.249,0.059-0.469,0.165-0.552c0.186-0.086,0.413-0.057,0.477,0.202
	c0,0,0.223-0.287,0.417-0.199c0.216,0.138,0.223,0.28,0.006,0.619c0,0,0.472-0.063,0.624,0.252c0.14,0.275,0.053,0.399-0.067,0.538
	l-0.009,0.174c0,0,0.33,0.041,0.348,0.152c0.071,0.157,0.014,0.292-0.197,0.484c0,0-0.023,0.389-0.222,0.646L82.843,114.754z"/>
<path fill="#FFFFFF" stroke="#FFFFFF" stroke-width="0.0191" d="M83.665,114.723c0.01-0.842-0.651-2.496-0.646-2.533
	c-0.005,0.037,0.58,1.683,0.576,2.524L83.665,114.723z"/>
<path fill="#FFFFFF" stroke="#FFFFFF" stroke-width="0.0191" d="M83.316,113.243c-0.183-0.022-0.491-0.293-0.706-0.424
	c0.215,0.131,0.493,0.32,0.689,0.344L83.316,113.243z"/>
<path fill="#FFFFFF" stroke="#FFFFFF" stroke-width="0.0191" d="M83.599,114.167c-0.197-0.063-0.609-0.373-0.855-0.57
	c0.246,0.197,0.541,0.46,0.825,0.496L83.599,114.167z"/>
<path fill="#FFFFFF" stroke="#FFFFFF" stroke-width="0.0191" d="M83.594,114.714c-0.221-0.028-0.504-0.187-0.704-0.34
	c0.2,0.153,0.488,0.266,0.714,0.257L83.594,114.714z"/>
<path fill="#FFFFFF" stroke="#FFFFFF" stroke-width="0.0191" d="M83.282,113.008c0.165-0.237,0.264-0.469,0.346-0.703
	c-0.082,0.234-0.179,0.453-0.338,0.64L83.282,113.008z"/>
<path fill="#FFFFFF" stroke="#FFFFFF" stroke-width="0.0191" d="M83.478,113.856c0.333-0.3,0.466-0.694,0.546-1.014
	c-0.08,0.319-0.193,0.562-0.565,0.914L83.478,113.856z"/>
<path fill="#FFFFFF" stroke="#FFFFFF" stroke-width="0.0191" d="M83.68,114.602c0.344-0.381,0.462-0.759,0.53-0.942
	c-0.068,0.184-0.182,0.523-0.515,0.815L83.68,114.602z"/>
<path d="M83.758,117.346c0.296-0.304,0.703-0.618,0.788-0.987c0.074-0.229-0.043-0.27-0.071-0.312
	c-0.095-0.013-0.16-0.213-0.022-0.331c0.077-0.112,0.247-0.226,0.219-0.365c0.021-0.157-0.083-0.216-0.177-0.228
	c-0.11-0.098-0.202-0.187-0.185-0.319c0.116-0.107,0.164-0.23,0.066-0.32c0.01-0.082-0.085-0.094-0.253-0.031
	c-0.013-0.002-0.137,0.06-0.241-0.031c-0.046-0.089,0.028-0.214,0.016-0.286c0.013-0.103-0.117-0.337-0.421-0.278
	c-0.246,0.059-0.339,0.291-0.229,0.485c0.107,0.22-0.03,0.24-0.099,0.232c-0.026-0.004-0.223-0.029-0.284,0.002
	c-0.043,0.04-0.283,0.307-0.199,0.399c0.125,0.177,0.183,0.185,0.14,0.275c-0.017,0.133-0.041,0.117-0.189,0.112
	c-0.11,0.107-0.178,0.343-0.06,0.48c0.133,0.113,0.133,0.113,0.144,0.237c-0.042,0.129-0.042,0.129-0.168,0.255
	c-0.046,0.059-0.152,0.238,0.072,0.292c0.043,0.116,0.147,0.264,0.161,0.459L83.758,117.346z"/>
<path fill="#E2001A" stroke="#FFFFFF" stroke-width="0.0443" d="M83.758,117.346c0.296-0.304,0.74-0.613,0.776-0.898
	c0.097-0.315-0.036-0.333-0.067-0.337c-0.061-0.034-0.161-0.207-0.028-0.287c0.113-0.133,0.256-0.295,0.269-0.402
	c-0.02-0.19-0.053-0.232-0.181-0.293c-0.152-0.02-0.238-0.153-0.198-0.271c0.093-0.123,0.189-0.221,0.155-0.36
	c-0.102-0.058-0.202-0.025-0.271-0.034c-0.102-0.013-0.227,0.049-0.33-0.042c-0.019-0.002,0.056-0.14,0.032-0.253
	c-0.011-0.071-0.146-0.275-0.387-0.306c-0.23,0.093-0.393,0.317-0.279,0.479c0.103,0.258,0.029,0.332-0.04,0.323
	c-0.085-0.095-0.282-0.12-0.349-0.044c-0.013,0.102-0.277,0.262-0.199,0.405c0.124,0.184,0.182,0.19,0.173,0.267
	c-0.028,0.216-0.07,0.088-0.188,0.156c-0.133,0.094-0.178,0.345-0.091,0.42c0.129,0.157,0.185,0.165,0.144,0.25
	c-0.012,0.095-0.056,0.23-0.097,0.251c-0.123,0.106-0.139,0.239-0.008,0.366c0.053,0.045,0.185,0.28,0.167,0.413L83.758,117.346z"/>
<path fill="#FFFFFF" stroke="#FFFFFF" stroke-width="0.0191" d="M83.54,116.978c0.357-1.196,0.181-2.036,0.061-2.515
	c0.12,0.479,0.231,1.283-0.136,2.505L83.54,116.978z"/>
<path fill="#FFFFFF" stroke="#FFFFFF" stroke-width="0.0191" d="M83.718,115.732c-0.165-0.13-0.519-0.432-0.642-0.776
	c0.124,0.345,0.482,0.609,0.636,0.667L83.718,115.732z"/>
<path fill="#FFFFFF" stroke="#FFFFFF" stroke-width="0.0191" d="M83.616,116.537c-0.208-0.09-0.516-0.458-0.619-0.761
	c0.103,0.303,0.428,0.53,0.626,0.698L83.616,116.537z"/>
<path fill="#FFFFFF" stroke="#FFFFFF" stroke-width="0.0191" d="M83.743,115.369c0.177-0.073,0.323-0.462,0.35-0.677
	c-0.027,0.215-0.159,0.495-0.383,0.634L83.743,115.369z"/>
<path fill="#FFFFFF" stroke="#FFFFFF" stroke-width="0.0191" d="M83.653,116.239c0.257-0.2,0.463-0.457,0.586-0.672
	c-0.124,0.215-0.322,0.409-0.575,0.583L83.653,116.239z"/>
<path fill="#FFFFFF" stroke="#FFFFFF" stroke-width="0.0191" d="M83.54,116.978c0.232-0.202,0.445-0.458,0.582-0.673
	c-0.137,0.215-0.346,0.445-0.57,0.59L83.54,116.978z"/>
<path d="M82.142,120.314c0.012-0.095,0.012-0.095,0.092-0.277c0.183-0.164,0.34-0.35,0.51-0.367c0.209-0.07,0.48-0.035,0.618-0.212
	c0.135-0.047,0.16-0.237,0.163-0.371c-0.114-0.015-0.18-0.094-0.046-0.296c0.108-0.192,0.109-0.095,0.279-0.171
	c0.182-0.066,0.32-0.186,0.44-0.376c0.032-0.253-0.093-0.339-0.175-0.35c-0.085-0.146-0.144-0.236-0.054-0.387
	c0.112-0.069,0.118-0.12,0.038-0.298c0.004-0.037-0.12-0.175-0.221-0.188c-0.125,0.068-0.115-0.014-0.227-0.042
	c-0.008-0.085-0.004-0.122,0.017-0.287c-0.019-0.163-0.134-0.216-0.267-0.232c-0.191-0.024-0.269,0.088-0.355,0.212
	c-0.014,0.107,0.102,0.161,0.092,0.243c-0.002,0.014-0.068,0.127-0.207,0.109c-0.025-0.004-0.025-0.004-0.184-0.023
	c-0.101,0.026-0.159,0.187-0.174,0.307c-0.09,0.163-0.005,0.353-0.01,0.392c-0.047,0.064-0.146-0.019-0.288,0.034
	c-0.236,0.145-0.333,0.351-0.247,0.432c0.161,0.246,0.149,0.342,0.141,0.411c-0.135,0.104-0.125,0.022-0.351,0.175
	c-0.159,0.089-0.191,0.342-0.153,0.553c0.093,0.23,0.029,0.435-0.068,0.545C81.619,119.921,82.142,120.314,82.142,120.314z"/>
<path fill="#E2001A" stroke="#FFFFFF" stroke-width="0.0443" d="M82.142,120.314c0.01-0.082,0.038-0.092,0.126-0.234
	c0.136-0.118,0.293-0.285,0.522-0.365c0.176-0.018,0.434-0.08,0.596-0.183c0.111-0.121,0.214-0.218,0.118-0.274
	c-0.062-0.182-0.159-0.265-0.029-0.435c0.1-0.129,0.113-0.127,0.352-0.194c0.133,0.018,0.238-0.093,0.363-0.321
	c0.029-0.222-0.055-0.328-0.167-0.413c-0.09-0.096-0.079-0.196-0.065-0.304c0.118-0.114,0.118-0.114,0.062-0.283
	c-0.009-0.135-0.148-0.152-0.249-0.166c-0.114-0.014-0.114-0.014-0.211-0.162c-0.02-0.002,0.011-0.082,0.01-0.229
	c0.017-0.133-0.13-0.235-0.226-0.248c-0.228-0.027-0.311,0.122-0.324,0.218c-0.083,0.098,0.027,0.195,0.025,0.209
	c-0.015,0.12-0.02,0.158-0.141,0.143c-0.09-0.051-0.09-0.051-0.171-0.021c-0.181,0.01-0.198,0.142-0.215,0.275
	c-0.131,0.176-0.021,0.377-0.056,0.443c-0.012,0.095-0.107-0.014-0.29,0.06c-0.224,0.05-0.326,0.294-0.249,0.438
	c0.174,0.145,0.201,0.245,0.15,0.347c-0.131,0.067-0.125,0.017-0.313,0.18c-0.192,0.047-0.207,0.372-0.202,0.631
	c0.174,0.158,0.152,0.329-0.028,0.485C81.695,120.078,82.142,120.314,82.142,120.314z"/>
<path fill="#FFFFFF" stroke="#FFFFFF" stroke-width="0.0191" d="M81.918,120.146l0.164-0.225c0.377-0.384,0.583-0.943,0.773-1.382
	c0.24-0.37,0.384-1.207,0.457-1.577c-0.072,0.37-0.325,1.194-0.465,1.544c-0.268,0.391-0.547,1.012-0.802,1.41l-0.164,0.225
	L81.918,120.146z"/>
<path fill="#FFFFFF" stroke="#FFFFFF" stroke-width="0.0191" d="M82.979,118.226c-0.189-0.242-0.229-0.491-0.221-0.748
	c-0.008,0.257,0.101,0.516,0.238,0.615L82.979,118.226z"/>
<path fill="#FFFFFF" stroke="#FFFFFF" stroke-width="0.0191" d="M82.696,118.725c-0.274-0.176-0.296-0.462-0.273-0.64
	c-0.023,0.178-0.036,0.491,0.255,0.785L82.696,118.725z"/>
<path fill="#FFFFFF" stroke="#FFFFFF" stroke-width="0.0191" d="M82.226,119.644c-0.021-0.139-0.183-0.486-0.362-0.593
	c0.179,0.106,0.394,0.339,0.368,0.555L82.226,119.644z"/>
<path fill="#FFFFFF" stroke="#FFFFFF" stroke-width="0.0191" d="M82.354,119.402c0.27-0.103,0.499-0.182,0.697-0.119
	c-0.198-0.062-0.413-0.09-0.567,0.064L82.354,119.402z"/>
<path fill="#FFFFFF" stroke="#FFFFFF" stroke-width="0.0191" d="M82.826,118.67c0.224-0.139,0.197-0.233,0.301-0.251
	c0.083-0.094,0.307-0.136,0.453-0.118c-0.146-0.018-0.284,0.004-0.407,0.021c-0.108,0.089-0.108,0.089-0.339,0.279L82.826,118.67z"
	/>
<path fill="#FFFFFF" stroke="#FFFFFF" stroke-width="0.0191" d="M83.005,118.011c0.168-0.152,0.44-0.272,0.647-0.588
	c-0.207,0.315-0.47,0.365-0.555,0.426L83.005,118.011z"/>
<path d="M66.643,118.469c0.02-0.15,0.026-0.202-0.021-0.291c-0.133-0.223-0.239-0.454-0.395-0.552
	c-0.187-0.095-0.432-0.19-0.55-0.326c-0.098-0.148-0.09-0.302-0.074-0.338c0.132-0.119,0.216-0.179,0.132-0.376
	c-0.065-0.149-0.079-0.151-0.224-0.267c-0.171-0.021-0.269-0.221-0.341-0.41c0.028-0.221,0.228-0.325,0.34-0.349
	c0.037-0.08,0.119-0.172,0.062-0.288c-0.009-0.13-0.081-0.178,0.044-0.35c0.009-0.069,0.148-0.052,0.25-0.039
	c0.114,0.015,0.189,0.023,0.244-0.104c0.03-0.08,0.035-0.118,0.052-0.251c0.052-0.103,0.182-0.17,0.314-0.153
	c0.191,0.023,0.309,0.161,0.296,0.256c-0.018,0.146-0.149,0.213-0.15,0.226c-0.015,0.12,0.031,0.165,0.175,0.144
	c0.025,0.004,0.064,0.009,0.179,0.062c0.095,0.012,0.112,0.181,0.165,0.322c-0.024,0.19-0.154,0.36-0.159,0.398
	c0.091,0.141,0.146,0.018,0.262,0.162c0.206,0.103,0.281,0.37,0.132,0.486c-0.084,0.111-0.217,0.191-0.23,0.299
	c0.109,0.098,0.117,0.047,0.295,0.256c0.207,0.098,0.097,0.41,0.016,0.537c-0.152,0.237-0.151,0.534-0.038,0.606
	C67.251,118.187,66.643,118.469,66.643,118.469z"/>
<path d="M67.366,109.927c-0.085-0.295-0.092-0.592,0.034-0.826c0.17-0.236,0.272-0.224,0.449-0.201
	c0.146,0.019,0.229,0.029,0.286-0.016c0.171-0.133,0.222-0.229,0.246-0.419c0.026-0.216,0.297-0.316,0.45-0.201
	c0.173,0.105,0.301,0.16,0.381,0.087c0.125-0.022,0.259-0.007,0.324,0.041c0.027,0.087,0.2,0.147,0.13,0.345
	c-0.032,0.253-0.086,0.381-0.058,0.468c0.018,0.209,0.173,0.351,0.024,0.467c-0.142,0.156-0.31,0.167-0.44,0.118
	c-0.162,0.013-0.347,0.148-0.273,0.333c0.052,0.148,0.029,0.331-0.193,0.451c-0.199,0.104-0.378,0.197-0.537,0.178L67.366,109.927z"
	/>
<path fill="#E2001A" stroke="#FFFFFF" stroke-width="0.0443" d="M67.354,110.021c-0.087-0.28-0.137-0.653-0.022-0.896
	c0.16-0.187,0.303-0.251,0.492-0.228c0.064,0.008,0.168,0.053,0.267,0.034c0.165-0.031,0.189-0.222,0.252-0.471
	c0.022-0.172,0.285-0.222,0.477-0.114c0.174,0.1,0.283,0.113,0.382,0.088c0.042-0.034,0.226-0.055,0.295-0.002
	c0.061,0.084,0.144,0.192,0.12,0.382c-0.032,0.253-0.038,0.304-0.066,0.519c0.029,0.075,0.128,0.262,0.029,0.442
	c-0.101,0.136-0.312,0.179-0.445,0.162c-0.19-0.024-0.332,0.023-0.286,0.222c0.048,0.141,0.022,0.343-0.126,0.447
	c-0.205,0.147-0.417,0.191-0.615,0.23L67.354,110.021z"/>
<path fill="#FFFFFF" stroke="#FFFFFF" stroke-width="0.0191" d="M67.937,110.14c0.189-0.228,1.027-1.15,1.153-1.392
	c-0.126,0.241-0.893,1.174-1.115,1.396L67.937,110.14z"/>
<path fill="#FFFFFF" stroke="#FFFFFF" stroke-width="0.0191" d="M68.361,109.685c0.307-0.135,0.64-0.228,0.925-0.191
	c-0.285-0.036-0.576,0.023-0.792,0.111L68.361,109.685z"/>
<path fill="#FFFFFF" stroke="#FFFFFF" stroke-width="0.0191" d="M67.813,110.368c0.3-0.098,0.637-0.209,0.909-0.175
	c-0.272-0.034-0.556-0.024-0.82,0.129L67.813,110.368z"/>
<path fill="#FFFFFF" stroke="#FFFFFF" stroke-width="0.0191" d="M68.504,109.529c0.136-0.312,0.074-0.59-0.055-0.85
	c0.128,0.26,0.195,0.5,0.09,0.771L68.504,109.529z"/>
<path fill="#FFFFFF" stroke="#FFFFFF" stroke-width="0.0191" d="M67.805,110.123c0.074-0.28,0-0.572-0.006-0.818
	c0.007,0.246,0.183,0.486,0.05,0.778L67.805,110.123z"/>
<path d="M67.357,112.802c0.239-0.054,0.295-0.099,0.315-0.25c0.021-0.172-0.019-0.26-0.019-0.26l0.021-0.062
	c0.253,0.032,0.461-0.083,0.527-0.3c0.046-0.161-0.192-0.313-0.192-0.313c0.016-0.134,0.042-0.336,0.042-0.336
	c0.229,0.028,0.338-0.079,0.355-0.213c0.078-0.062,0.009-0.069-0.038-0.263c-0.017-0.072-0.232-0.209-0.232-0.209
	c0.138-0.227,0.129-0.46-0.028-0.531c-0.14-0.172-0.38-0.202-0.468,0.038c0,0-0.178-0.376-0.381-0.3
	c-0.222,0.127-0.271,0.218-0.171,0.597c0,0-0.403-0.173-0.624,0.096c-0.208,0.23-0.097,0.315-0.111,0.531l-0.035,0.17
	c0,0-0.253-0.031-0.338,0.029c-0.055,0.179-0.072,0.318,0.033,0.55c0,0-0.048,0.387,0.061,0.645L67.357,112.802z"/>
<path fill="#E2001A" stroke="#FFFFFF" stroke-width="0.0443" d="M67.354,112.839c0.149-0.02,0.261-0.141,0.311-0.219
	c0.02-0.164-0.021-0.247-0.021-0.247l0.023-0.08c0.253,0.032,0.428-0.08,0.523-0.274c0.023-0.184-0.188-0.352-0.188-0.352
	c0.018-0.146,0.032-0.254,0.032-0.254c0.228,0.028,0.281-0.184,0.364-0.282c0.078-0.055,0.017-0.133-0.039-0.263
	c-0.051-0.103-0.227-0.24-0.227-0.24c0.135-0.202,0.057-0.456-0.03-0.525c-0.16-0.104-0.389-0.133-0.501-0.005
	c0,0-0.148-0.309-0.355-0.296c-0.252,0.161-0.272,0.326-0.159,0.598c0,0-0.418-0.053-0.673,0.127
	c-0.197,0.194-0.056,0.348-0.062,0.5l-0.035,0.17c0,0-0.253-0.031-0.386,0.158c-0.1,0.07-0.036,0.285,0.068,0.522
	c0,0-0.061,0.282,0.062,0.626L67.354,112.839z"/>
<path fill="#FFFFFF" stroke="#FFFFFF" stroke-width="0.0191" d="M66.563,112.617c0.196-0.779,1.257-2.306,1.257-2.306
	s-0.986,1.535-1.187,2.314L66.563,112.617z"/>
<path fill="#FFFFFF" stroke="#FFFFFF" stroke-width="0.0191" d="M67.262,111.315c0.183,0.023,0.551-0.188,0.795-0.292
	c-0.244,0.104-0.562,0.226-0.753,0.162L67.262,111.315z"/>
<path fill="#FFFFFF" stroke="#FFFFFF" stroke-width="0.0191" d="M66.766,112.083c0.258-0.006,0.702-0.156,0.966-0.31
	c-0.264,0.153-0.633,0.274-0.918,0.239L66.766,112.083z"/>
<path fill="#FFFFFF" stroke="#FFFFFF" stroke-width="0.0191" d="M66.633,112.626c0.222,0.027,0.537-0.068,0.766-0.148
	c-0.229,0.08-0.537,0.127-0.723,0.02L66.633,112.626z"/>
<path fill="#FFFFFF" stroke="#FFFFFF" stroke-width="0.0191" d="M67.357,111.07c-0.107-0.22-0.065-0.549-0.108-0.773
	c0.043,0.225,0.086,0.441,0.118,0.704L67.357,111.07z"/>
<path fill="#FFFFFF" stroke="#FFFFFF" stroke-width="0.0191" d="M66.966,111.774c-0.256-0.322-0.28-0.788-0.255-0.991
	c-0.025,0.203,0.016,0.536,0.291,0.963L66.966,111.774z"/>
<path fill="#FFFFFF" stroke="#FFFFFF" stroke-width="0.0191" d="M66.581,112.484c-0.243-0.423-0.267-0.792-0.231-1.078
	c-0.036,0.286-0.003,0.586,0.24,1.009L66.581,112.484z"/>
<path d="M65.828,115.085c-0.211-0.367-0.527-0.773-0.529-1.063c-0.003-0.329,0.149-0.31,0.149-0.31
	c0.098-0.013,0.239-0.155,0.13-0.267c-0.077-0.157-0.217-0.271-0.148-0.456c0.023-0.184,0.136-0.208,0.235-0.241
	c0.121,0.016,0.312-0.12,0.252-0.212c-0.083-0.146-0.103-0.259,0.022-0.377c0.03-0.042,0.095,0.012,0.253,0.031
	c0.058,0.007,0.186,0.159,0.24,0.03c0.096,0.012,0.039-0.144,0.052-0.251c0.017-0.133,0.24-0.323,0.482-0.195
	c0.219,0.149,0.244,0.461,0.091,0.603c-0.154,0.148-0.032,0.248,0.043,0.212c0.026,0.003,0.258-0.006,0.273,0.079
	c0.101,0.064,0.202,0.334,0.092,0.443c-0.127,0.15-0.223,0.139-0.196,0.181c-0.001,0.219,0.008,0.137,0.144,0.236
	c0.082,0.121,0.087,0.378,0.029,0.436c-0.246,0.11-0.246,0.11-0.257,0.198c-0.011,0.096-0.021,0.165,0.075,0.274
	c0.033,0.042,0.088,0.269-0.115,0.352c-0.099,0.025-0.165,0.237-0.303,0.354L65.828,115.085z"/>
<path fill="#E2001A" stroke="#FFFFFF" stroke-width="0.0443" d="M65.821,115.136c-0.221-0.285-0.563-0.791-0.522-1.114
	c-0.025-0.261,0.108-0.244,0.149-0.31c0.094,0.012,0.202-0.123,0.098-0.271c-0.081-0.119-0.186-0.255-0.12-0.421
	c0.02-0.165,0.103-0.205,0.234-0.228c0.125-0.018,0.238-0.099,0.226-0.21c-0.052-0.193-0.075-0.267-0.032-0.358
	c0.086-0.065,0.181-0.054,0.339-0.034c0.004,0.078,0.105,0.188,0.231,0.107c0.029-0.074-0.018-0.164,0.056-0.289
	c0.008-0.069,0.194-0.271,0.424-0.152c0.199,0.16,0.306,0.379,0.154,0.521c-0.154,0.148-0.107,0.289-0.038,0.299
	c0.102-0.039,0.297-0.015,0.349,0.043c-0.011,0.083,0.205,0.315,0.098,0.393c-0.171,0.184-0.228,0.177-0.244,0.31
	c0.015,0.125,0.056,0.008,0.149,0.141c0.106,0.123,0.125,0.383-0.02,0.461c-0.154,0.052-0.18,0.049-0.192,0.144
	c-0.019,0.158-0.002,0.231,0.097,0.308c0.028,0.088,0.011,0.221-0.148,0.311c-0.072,0.112-0.247,0.226-0.273,0.429L65.821,115.136z"
	/>
<path fill="#FFFFFF" stroke="#FFFFFF" stroke-width="0.0191" d="M66.118,114.878c-0.045-1.273,0.415-2.02,0.566-2.451
	c-0.151,0.432-0.533,1.117-0.479,2.365L66.118,114.878z"/>
<path fill="#FFFFFF" stroke="#FFFFFF" stroke-width="0.0191" d="M66.265,113.559c0.186-0.042,0.612-0.316,0.852-0.582
	c-0.24,0.266-0.653,0.433-0.825,0.521L66.265,113.559z"/>
<path fill="#FFFFFF" stroke="#FFFFFF" stroke-width="0.0191" d="M66.156,114.42c0.262-0.09,0.612-0.31,0.788-0.583
	c-0.176,0.273-0.514,0.397-0.754,0.464L66.156,114.42z"/>
<path fill="#FFFFFF" stroke="#FFFFFF" stroke-width="0.0191" d="M66.354,113.312c-0.181-0.196-0.216-0.587-0.197-0.842
	c-0.019,0.255,0.036,0.48,0.213,0.709L66.354,113.312z"/>
<path fill="#FFFFFF" stroke="#FFFFFF" stroke-width="0.0191" d="M66.204,114.046c-0.199-0.264-0.338-0.538-0.375-0.8
	c0.037,0.262,0.225,0.517,0.405,0.706L66.204,114.046z"/>
<path fill="#FFFFFF" stroke="#FFFFFF" stroke-width="0.0191" d="M66.113,114.915c-0.133-0.273-0.308-0.623-0.39-0.841
	c0.082,0.218,0.233,0.455,0.417,0.626L66.113,114.915z"/>
<path fill="#E2001A" stroke="#FFFFFF" stroke-width="0.0443" d="M66.643,118.469c0.013-0.107-0.006-0.154-0.064-0.258
	c-0.09-0.256-0.208-0.393-0.36-0.509c-0.212-0.104-0.45-0.205-0.573-0.407c-0.085-0.082-0.157-0.226-0.045-0.295
	c0.094-0.085,0.211-0.147,0.129-0.363c-0.058-0.2-0.081-0.132-0.229-0.222c-0.158-0.117-0.264-0.252-0.338-0.436
	c0.028-0.216,0.132-0.279,0.269-0.391c0.105-0.025,0.123-0.158,0.133-0.24c-0.082-0.172-0.076-0.216,0.011-0.296
	c0.046-0.16,0.19-0.182,0.292-0.169c0.109,0.054,0.189,0.023,0.232-0.009c0.032-0.093,0.012-0.095,0.061-0.32
	c0.012-0.095,0.175-0.112,0.271-0.102c0.227,0.029,0.277,0.145,0.26,0.277c0.055,0.129-0.067,0.127-0.083,0.247
	c0,0,0.034,0.14,0.111,0.085c0.099-0.02,0.099-0.02,0.254,0.032c0.087,0.075,0.071,0.196,0.051,0.36
	c0.087,0.173-0.042,0.329-0.051,0.398c-0.017,0.133,0.109,0.015,0.263,0.168c0.208,0.072,0.249,0.321,0.137,0.442
	c-0.085,0.111-0.26,0.226-0.23,0.3c0.102,0.16,0.114,0.065,0.261,0.219c0.159,0.227,0.126,0.479,0.04,0.661
	c-0.216,0.185-0.244,0.401-0.065,0.521C67.143,118.282,66.643,118.469,66.643,118.469z"/>
<path fill="#FFFFFF" stroke="#FFFFFF" stroke-width="0.0191" d="M66.909,118.298l-0.104-0.244c-0.226-0.506-0.323-1.116-0.394-1.524
	c-0.154-0.412-0.081-1.29-0.044-1.581c-0.037,0.291-0.001,1.184,0.044,1.581c0.166,0.421,0.29,1.021,0.44,1.472l0.097,0.301
	L66.909,118.298z"/>
<path fill="#FFFFFF" stroke="#FFFFFF" stroke-width="0.0191" d="M66.411,116.177c0.186-0.151,0.322-0.462,0.349-0.678
	c-0.027,0.216-0.222,0.436-0.39,0.595L66.411,116.177z"/>
<path fill="#FFFFFF" stroke="#FFFFFF" stroke-width="0.0191" d="M66.508,116.734c0.314-0.152,0.399-0.36,0.421-0.532
	c-0.022,0.172-0.088,0.491-0.369,0.675L66.508,116.734z"/>
<path fill="#FFFFFF" stroke="#FFFFFF" stroke-width="0.0191" d="M66.731,117.767c0.063-0.191,0.337-0.428,0.503-0.516
	c-0.166,0.088-0.476,0.307-0.493,0.439L66.731,117.767z"/>
<path fill="#FFFFFF" stroke="#FFFFFF" stroke-width="0.0191" d="M66.678,117.426c-0.237-0.166-0.443-0.263-0.614-0.284
	c0.17,0.021,0.386,0.049,0.497,0.237L66.678,117.426z"/>
<path fill="#FFFFFF" stroke="#FFFFFF" stroke-width="0.0191" d="M66.398,116.637c-0.14-0.223-0.07-0.214-0.2-0.353
	c-0.088-0.075-0.293-0.173-0.401-0.186c0.107,0.013,0.237,0.062,0.383,0.119c0.051,0.103,0.09,0.107,0.227,0.343L66.398,116.637z"/>
<path fill="#FFFFFF" stroke="#FFFFFF" stroke-width="0.0191" d="M66.392,115.916c-0.128-0.151-0.358-0.373-0.455-0.682
	c0.097,0.309,0.34,0.423,0.395,0.597L66.392,115.916z"/>
<path d="M66.668,119.451c-0.324-0.04-0.624-0.111-0.783-0.388c-0.062-0.267-0.009-0.433,0.027-0.512
	c0.092-0.123,0.217-0.147,0.19-0.343c0.007-0.057-0.149-0.187-0.286-0.339c-0.193-0.146-0.081-0.428,0.069-0.545
	c0.187-0.047,0.233-0.105,0.251-0.258c0.012-0.095,0.139-0.227,0.19-0.22c0.043,0.005,0.25-0.104,0.417,0.052
	c0.086,0.082,0.211,0.271,0.306,0.283c0.19,0.024,0.36,0.046,0.462,0.213c0.077,0.145-0.02,0.352-0.059,0.463
	c-0.082,0.086-0.104,0.263,0.051,0.359c0.203,0.026,0.347,0.153,0.341,0.403c-0.021,0.172-0.043,0.349-0.088,0.504L66.668,119.451z"
	/>
<path fill="#E2001A" stroke="#FFFFFF" stroke-width="0.0443" d="M66.661,119.502c-0.234-0.081-0.609-0.128-0.676-0.355
	c-0.135-0.308-0.116-0.452-0.045-0.508c0.126-0.139,0.186-0.194,0.204-0.341c0.013-0.096-0.178-0.164-0.332-0.37
	c-0.126-0.074-0.028-0.396,0.143-0.472c0.111-0.108,0.203-0.231,0.211-0.301c0.011-0.083,0.152-0.238,0.185-0.234
	c0.072-0.062,0.241-0.079,0.395-0.021c0.185,0.172,0.211,0.271,0.338,0.333c0.185,0.061,0.374,0.047,0.456,0.165
	c0.106,0.272-0.049,0.388-0.096,0.556c-0.053,0.115-0.07,0.248,0.119,0.382c0.184,0.023,0.311,0.084,0.355,0.295
	c-0.032,0.254-0.053,0.425-0.141,0.549L66.661,119.502z"/>
<path fill="#FFFFFF" stroke="#FFFFFF" stroke-width="0.0191" d="M67.067,119.077c-0.058-0.303-0.527-1.534-0.644-1.684
	c0.117,0.149,0.618,1.384,0.655,1.601L67.067,119.077z"/>
<path fill="#FFFFFF" stroke="#FFFFFF" stroke-width="0.0191" d="M66.883,118.5c0.031-0.247,0.099-0.778,0.273-0.892
	c-0.175,0.113-0.231,0.46-0.262,0.7L66.883,118.5z"/>
<path fill="#FFFFFF" stroke="#FFFFFF" stroke-width="0.0191" d="M67.275,119.27c0.037-0.284,0.09-0.71,0.208-0.887
	c-0.118,0.177-0.197,0.49-0.242,0.851L67.275,119.27z"/>
<path fill="#FFFFFF" stroke="#FFFFFF" stroke-width="0.0191" d="M66.814,118.286c-0.173-0.254-0.528-0.356-0.782-0.389
	c0.253,0.032,0.495,0.062,0.75,0.339L66.814,118.286z"/>
<path fill="#FFFFFF" stroke="#FFFFFF" stroke-width="0.0191" d="M67.026,119.207c-0.208-0.284-0.493-0.32-0.715-0.348
	c0.222,0.027,0.434-0.022,0.692,0.222L67.026,119.207z"/>
<path d="M69.158,120.769c0.018-0.146,0.031-0.24-0.029-0.332c-0.124-0.093-0.211-0.065-0.211-0.065l-0.034-0.139
	c0.074-0.184,0.056-0.442-0.128-0.518c-0.041-0.186-0.348-0.044-0.348-0.044c-0.073-0.041-0.231-0.209-0.231-0.209
	c0.109-0.097,0.041-0.324-0.024-0.37c-0.066-0.086-0.157-0.13-0.244-0.108c-0.133-0.017-0.305,0.077-0.305,0.077
	c-0.181-0.196-0.392-0.262-0.509-0.211c-0.228,0.08-0.282,0.208-0.153,0.456c0,0-0.459-0.032-0.455,0.174
	c-0.005,0.258,0.082,0.423,0.406,0.464c0,0-0.322,0.255-0.231,0.607c0.125,0.234,0.258,0.251,0.441,0.274l0.12,0.176
	c0,0-0.166,0.185-0.108,0.289c0.049,0.167,0.224,0.26,0.465,0.291c0,0,0.359,0.264,0.681,0.305L69.158,120.769z"/>
<path fill="#E2001A" stroke="#FFFFFF" stroke-width="0.0443" d="M69.267,120.879c0.021-0.171,0.042-0.336-0.144-0.397
	c-0.053-0.091-0.21-0.072-0.21-0.072l0.01-0.076c0.067-0.28,0.048-0.386-0.06-0.605c-0.147-0.102-0.36-0.045-0.36-0.045
	c-0.133-0.017-0.244-0.114-0.244-0.114c0.06-0.166,0.011-0.34-0.08-0.436c-0.064-0.046-0.093-0.127-0.198-0.063
	c-0.189-0.023-0.338,0.08-0.338,0.08c-0.154-0.25-0.349-0.34-0.551-0.27c-0.109,0.103-0.257,0.303-0.162,0.521
	c0,0-0.405,0-0.416,0.083c-0.031,0.254,0.089,0.462,0.413,0.502c0,0-0.285,0.318-0.265,0.565c0.154,0.309,0.287,0.325,0.501,0.353
	l0.06,0.098c0,0-0.174,0.255-0.046,0.368c0.068,0.169,0.198,0.211,0.486,0.222c0,0,0.309,0.258,0.599,0.295L69.267,120.879z"/>
<path fill="#FFFFFF" stroke="#FFFFFF" stroke-width="0.0191" d="M68.574,121.474c-0.516-0.554-1.337-2.208-1.368-2.212
	c0.031,0.004,0.892,1.592,1.449,2.125L68.574,121.474z"/>
<path fill="#FFFFFF" stroke="#FFFFFF" stroke-width="0.0191" d="M67.754,120.225c0.098-0.123,0.162-0.616,0.188-0.832
	c-0.026,0.216-0.081,0.641-0.222,0.79L67.754,120.225z"/>
<path fill="#FFFFFF" stroke="#FFFFFF" stroke-width="0.0191" d="M68.236,121.039c0.158-0.187,0.221-0.687,0.229-1.052
	c-0.008,0.365-0.098,0.778-0.217,0.957L68.236,121.039z"/>
<path d="M68.655,121.387c0.152-0.14,0.206-0.559,0.231-0.762c-0.025,0.203-0.123,0.57-0.3,0.754L68.655,121.387z"/>
<path fill="#FFFFFF" stroke="#FFFFFF" stroke-width="0.0191" d="M67.608,120.001c-0.257,0-0.451-0.096-0.718-0.277
	c0.267,0.182,0.4,0.198,0.702,0.152L67.608,120.001z"/>
<path fill="#FFFFFF" stroke="#FFFFFF" stroke-width="0.0191" d="M68.113,120.733c-0.465,0.025-0.83-0.201-1.06-0.269
	c0.23,0.067,0.524,0.285,0.978,0.161L68.113,120.733z"/>
<path fill="#FFFFFF" stroke="#FFFFFF" stroke-width="0.0191" d="M68.497,121.367c-0.469,0.038-0.866-0.181-1.057-0.293
	c0.191,0.112,0.592,0.306,0.971,0.211L68.497,121.367z"/>
<path d="M70.459,123.262c-0.44,0.067-0.94,0.101-1.186,0.012c-0.283-0.197-0.177-0.28-0.171-0.317
	c0.012-0.108-0.064-0.266-0.26-0.238c-0.184-0.024-0.272,0.011-0.457-0.059c-0.13-0.139-0.118-0.233-0.098-0.392
	c0.094-0.085,0.112-0.23-0.077-0.255c-0.161-0.103-0.253-0.031-0.274-0.13c-0.043-0.167,0.061-0.226,0.102-0.245
	c0.091-0.059,0.239-0.163,0.248-0.227c-0.086-0.081-0.208-0.097-0.235-0.172c-0.084-0.1-0.163-0.341,0.053-0.423
	c0.186-0.195,0.483-0.158,0.501,0.102c0.083,0.216,0.229,0.125,0.232,0.101c0.04-0.066,0.188-0.268,0.252-0.259
	c0.042-0.033,0.335-0.067,0.418,0.149c0.048,0.129-0.027,0.216,0.027,0.293c0.205,0.116,0.189,0.024,0.261-0.038
	c0.193-0.001,0.434,0.03,0.411,0.213c0.031,0.21-0.035,0.272,0.022,0.279c0.117,0.041,0.212,0.054,0.326,0.067
	c0.099-0.014,0.285,0.036,0.257,0.264c-0.013,0.096,0.1,0.271,0.209,0.381L70.459,123.262z"/>
<path fill="#E2001A" stroke="#FFFFFF" stroke-width="0.0443" d="M70.448,123.345c-0.344,0.034-0.938,0.094-1.177-0.053
	c-0.279-0.131-0.177-0.273-0.174-0.299c0.018-0.146-0.052-0.251-0.216-0.271c-0.173-0.009-0.316,0.057-0.495-0.062
	c-0.13-0.139-0.122-0.208-0.031-0.261c0.086-0.183,0.058-0.36-0.106-0.381c-0.171-0.021-0.292-0.036-0.282-0.119
	c-0.025-0.054,0.021-0.171,0.113-0.229c0.08-0.017,0.226-0.106,0.203-0.232c0.003-0.025-0.168-0.047-0.232-0.197
	c-0.027-0.041-0.167-0.315,0.053-0.423c0.181-0.157,0.528-0.114,0.54,0.106c0.12,0.272,0.182,0.189,0.222,0.124
	c0.003-0.025,0.173-0.197,0.224-0.287c0.069,0.009,0.439-0.021,0.481,0.157c-0.024,0.189-0.035,0.285,0.042,0.334
	c0.165,0.071,0.108,0.014,0.176-0.017c0.215-0.07,0.439-0.015,0.471,0.195c-0.021,0.157-0.086,0.22,0.057,0.264
	c0.027,0.042,0.198,0.063,0.24,0.03c0.096,0.012,0.28,0.073,0.257,0.264c0.036,0.224,0.1,0.283,0.205,0.418L70.448,123.345z"/>
<path fill="#FFFFFF" stroke="#FFFFFF" stroke-width="0.0191" d="M70.368,122.909c-1.072-0.585-1.608-1.29-1.87-1.65
	c0.262,0.36,0.801,1.04,1.885,1.53L70.368,122.909z"/>
<path fill="#FFFFFF" stroke="#FFFFFF" stroke-width="0.0191" d="M69.351,122.157c0.016-0.133,0.053-0.675-0.12-0.993
	c0.172,0.318,0.043,0.726,0.021,0.896L69.351,122.157z"/>
<path fill="#FFFFFF" stroke="#FFFFFF" stroke-width="0.0191" d="M70.047,122.65c0.028-0.228-0.061-0.702-0.161-0.973
	c0.101,0.271,0.047,0.7-0.023,0.949L70.047,122.65z"/>
<path fill="#FFFFFF" stroke="#FFFFFF" stroke-width="0.0191" d="M69.125,121.994c-0.26,0.019-0.646-0.082-0.846-0.229
	c0.2,0.147,0.467,0.221,0.741,0.093L69.125,121.994z"/>
<path fill="#FFFFFF" stroke="#FFFFFF" stroke-width="0.0191" d="M69.636,122.438c-0.237,0.093-0.572,0.05-0.763,0.025
	c0.191,0.024,0.51-0.058,0.768-0.063L69.636,122.438z"/>
<path fill="#FFFFFF" stroke="#FFFFFF" stroke-width="0.0191" d="M70.406,122.914c-0.332-0.028-0.62-0.033-0.886-0.066
	c0.266,0.033,0.5,0.019,0.777,0.001L70.406,122.914z"/>
<path d="M81.861,121.367c0.241,0.03,0.619,0.045,0.814-0.188c0.134-0.24,0.155-0.411,0.141-0.496
	c-0.129-0.152-0.175-0.197-0.101-0.38c0.007-0.058,0.192-0.144,0.36-0.257c0.148-0.104,0.186-0.395,0.068-0.545
	c-0.167-0.092-0.236-0.165-0.216-0.317c0.011-0.095-0.04-0.249-0.122-0.26c-0.064-0.008-0.186-0.158-0.386-0.049
	c-0.212,0.044-0.272,0.211-0.405,0.193c-0.189-0.023-0.373-0.047-0.461,0.096c-0.182,0.113-0.07,0.346-0.059,0.463
	c0.026,0.1,0.003,0.277-0.208,0.327c-0.134-0.016-0.33,0.068-0.362,0.315c-0.091,0.163-0.114,0.34-0.064,0.507L81.861,121.367z"/>
<path fill="#E2001A" stroke="#FFFFFF" stroke-width="0.0443" d="M81.854,121.418c0.248-0.021,0.622,0.026,0.743-0.177
	c0.208-0.264,0.201-0.412,0.132-0.485c-0.05-0.161-0.125-0.234-0.075-0.376c0.012-0.096,0.214-0.115,0.414-0.276
	c0.14-0.04,0.144-0.374-0.021-0.492c-0.117-0.137-0.209-0.283-0.199-0.354c0.01-0.081-0.02-0.259-0.063-0.265
	c-0.111-0.085-0.202-0.135-0.404-0.122c-0.183,0.126-0.233,0.216-0.371,0.243c-0.22,0.011-0.405-0.051-0.482,0.048
	c-0.171,0.236-0.049,0.388-0.07,0.558c0.009,0.123-0.007,0.257-0.186,0.344c-0.183-0.022-0.392-0.005-0.417,0.197
	c-0.033,0.255-0.054,0.426-0.07,0.559L81.854,121.418z"/>
<path fill="#FFFFFF" stroke="#FFFFFF" stroke-width="0.0191" d="M81.566,120.904c0.131-0.278,0.891-1.354,1.041-1.47
	c-0.149,0.115-0.94,1.187-1.1,1.379L81.566,120.904z"/>
<path fill="#FFFFFF" stroke="#FFFFFF" stroke-width="0.0191" d="M81.888,120.392c0.03-0.246,0.099-0.778-0.043-0.932
	c0.142,0.153,0.11,0.503,0.081,0.743L81.888,120.392z"/>
<path fill="#FFFFFF" stroke="#FFFFFF" stroke-width="0.0191" d="M81.317,121.041c0.036-0.285,0.09-0.71-0.051-0.92
	c0.141,0.21,0.139,0.532,0.094,0.893L81.317,121.041z"/>
<path fill="#FFFFFF" stroke="#FFFFFF" stroke-width="0.0191" d="M82.008,120.201c0.231-0.201,0.53-0.223,0.815-0.187
	c-0.285-0.036-0.537-0.068-0.81,0.143L82.008,120.201z"/>
<path fill="#FFFFFF" stroke="#FFFFFF" stroke-width="0.0191" d="M81.548,121.038c0.286-0.222,0.583-0.185,0.805-0.156
	c-0.222-0.028-0.497-0.141-0.726,0.043L81.548,121.038z"/>
<path d="M79.121,122.025c-0.102-0.161,0.03-0.241,0.11-0.314c0.144-0.06,0.221-0.011,0.221-0.011l0.067-0.127
	c-0.059-0.2,0.005-0.449,0.214-0.475c0.124-0.165,0.292,0.036,0.292,0.036c0.175-0.01,0.275-0.146,0.275-0.146
	c0.013-0.107,0.136-0.311,0.21-0.34c0.047-0.071,0.091-0.098,0.263-0.045c0.107,0.014,0.277,0.151,0.277,0.151
	c0.155-0.154,0.395-0.162,0.544-0.079c0.082,0.119,0.223,0.272,0.035,0.48c0,0,0.421,0.079,0.37,0.279
	c-0.032,0.253-0.196,0.387-0.481,0.351c0,0,0.247,0.327,0.072,0.646c-0.179,0.196-0.312,0.181-0.496,0.156l-0.159,0.142
	c0,0,0.114,0.22-0.038,0.298c-0.059,0.153-0.212,0.204-0.453,0.174c0,0-0.445,0.163-0.736,0.127L79.121,122.025z"/>
<path fill="#E2001A" stroke="#FFFFFF" stroke-width="0.0443" d="M78.989,122.105c0.022-0.171,0.042-0.337,0.199-0.355
	c0.048-0.078,0.259-0.013,0.259-0.013l0.01-0.075c-0.046-0.295,0.048-0.387,0.207-0.573c0.119-0.067,0.362,0.046,0.362,0.046
	c0.133,0.017,0.263-0.05,0.263-0.05c-0.016-0.176,0.043-0.336,0.148-0.406c0.074-0.029,0.16-0.096,0.328,0.003
	c0.038,0.005,0.225,0.15,0.225,0.15c0.213-0.204,0.423-0.243,0.601-0.124c0.082,0.126,0.174,0.356-0.003,0.541
	c0,0,0.424,0.104,0.414,0.188c-0.032,0.253-0.201,0.424-0.549,0.38c0,0,0.209,0.38,0.021,0.602c-0.13,0.272-0.29,0.253-0.454,0.232
	l-0.119,0.074c0,0,0.073,0.286-0.009,0.373c-0.153,0.142-0.246,0.155-0.527,0.094c0,0-0.362,0.174-0.686,0.133L78.989,122.105z"/>
<path fill="#FFFFFF" stroke="#FFFFFF" stroke-width="0.0191" d="M79.442,122.844c0.675-0.403,1.912-1.798,1.912-1.798
	s-1.229,1.324-1.9,1.703L79.442,122.844z"/>
<path fill="#FFFFFF" stroke="#FFFFFF" stroke-width="0.0191" d="M80.617,121.847c-0.065-0.144-0.003-0.638,0.024-0.853
	c-0.027,0.215-0.082,0.64,0.018,0.819L80.617,121.847z"/>
<path fill="#FFFFFF" stroke="#FFFFFF" stroke-width="0.0191" d="M79.852,122.503c-0.012-0.207,0.051-0.708,0.134-1.063
	c-0.083,0.355-0.098,0.778-0.027,0.981L79.852,122.503z"/>
<path fill="#FFFFFF" stroke="#FFFFFF" stroke-width="0.0191" d="M79.455,122.749c-0.114-0.176-0.061-0.594-0.035-0.796
	c-0.026,0.202-0.073,0.576,0.104,0.805L79.455,122.749z"/>
<path fill="#FFFFFF" stroke="#FFFFFF" stroke-width="0.0191" d="M80.776,121.66c0.287,0.069,0.498,0.025,0.77-0.088
	c-0.272,0.113-0.474,0.088-0.686-0.022L80.776,121.66z"/>
<path fill="#FFFFFF" stroke="#FFFFFF" stroke-width="0.0191" d="M80.141,122.25c0.446,0.14,0.856,0.012,1.062-0.001
	c-0.207,0.013-0.547,0.149-1.017-0.09L80.141,122.25z"/>
<path fill="#FFFFFF" stroke="#FFFFFF" stroke-width="0.0191" d="M79.562,122.763c0.494,0.158,0.933,0.047,1.116-0.02
	c-0.183,0.066-0.618,0.153-1.044-0.043L79.562,122.763z"/>
<path d="M77.243,124.117c0.408,0.174,0.884,0.33,1.145,0.306c0.311-0.122,0.241-0.228,0.246-0.266
	c0.013-0.107,0.127-0.24,0.31-0.166c0.133,0.016,0.261,0.077,0.457,0.057c0.161-0.102,0.173-0.196,0.11-0.365
	c0-0.096,0.03-0.24,0.183-0.222c0.181-0.061,0.291,0.037,0.303-0.058c0.115-0.146,0.029-0.229-0.05-0.265
	c-0.029-0.074-0.148-0.211-0.139-0.274c0.008-0.07,0.179-0.048,0.271-0.108c0.106-0.075,0.242-0.29,0.053-0.423
	c-0.131-0.236-0.479-0.28-0.55-0.03c-0.178,0.183-0.214,0.068-0.211,0.043c-0.022-0.073-0.115-0.305-0.179-0.312
	c-0.064-0.047-0.386-0.159-0.468,0.036c-0.053,0.117-0.027,0.216-0.105,0.277c-0.194,0.065-0.159-0.02-0.213-0.098
	c-0.2-0.051-0.427-0.08-0.507,0.097c-0.026,0.202,0.023,0.279-0.034,0.271c-0.124,0.011-0.219-0.001-0.333-0.015
	c-0.091-0.038-0.285-0.036-0.314,0.19c-0.012,0.096-0.165,0.237-0.297,0.317L77.243,124.117z"/>
<path fill="#E2001A" stroke="#FFFFFF" stroke-width="0.0443" d="M77.232,124.2c0.325,0.117,0.886,0.323,1.153,0.241
	c0.265-0.062,0.203-0.226,0.205-0.251c0.019-0.146,0.113-0.23,0.315-0.205c0.17,0.034,0.292,0.134,0.456,0.059
	c0.117-0.108,0.125-0.177,0.121-0.243c-0.027-0.196-0.006-0.366,0.211-0.34c0.131,0.018,0.291,0.037,0.301-0.046
	c0.007-0.05,0.021-0.171-0.051-0.251c-0.073-0.034-0.192-0.159-0.178-0.279c0.042-0.021,0.213,0.001,0.312-0.129
	c0.004-0.037,0.201-0.27,0.053-0.423c-0.231-0.21-0.484-0.242-0.55-0.03c-0.184,0.233-0.224,0.138-0.246,0.064
	c-0.047-0.032-0.156-0.238-0.145-0.333c-0.069-0.009-0.421-0.131-0.506,0.032c-0.024,0.189-0.036,0.285-0.192,0.304
	c-0.108,0.038-0.064-0.008-0.097-0.05c-0.191-0.121-0.479-0.132-0.504,0.07c-0.021,0.158-0.029,0.228-0.121,0.242
	c-0.099,0.026-0.207,0.013-0.323-0.04c-0.133-0.018-0.271,0.004-0.294,0.193c-0.028,0.216-0.104,0.258-0.276,0.358L77.232,124.2z"/>
<path fill="#FFFFFF" stroke="#FFFFFF" stroke-width="0.0191" d="M77.379,123.794c1.221-0.297,1.914-0.846,2.247-1.133
	c-0.333,0.287-1.023,0.811-2.231,1.013L77.379,123.794z"/>
<path fill="#FFFFFF" stroke="#FFFFFF" stroke-width="0.0191" d="M78.59,123.322c0.016-0.134,0.117-0.667,0.362-0.933
	c-0.245,0.266-0.222,0.692-0.244,0.863L78.59,123.322z"/>
<path fill="#FFFFFF" stroke="#FFFFFF" stroke-width="0.0191" d="M77.792,123.627c0.03-0.228,0.163-0.674,0.397-0.903
	c-0.234,0.229-0.289,0.659-0.321,0.913L77.792,123.627z"/>
<path fill="#FFFFFF" stroke="#FFFFFF" stroke-width="0.0191" d="M78.848,123.22c0.183,0.074,0.646,0.082,0.876-0.012
	c-0.229,0.094-0.558,0.091-0.74-0.094L78.848,123.22z"/>
<path fill="#FFFFFF" stroke="#FFFFFF" stroke-width="0.0191" d="M78.136,123.509c0.263,0.155,0.599,0.198,0.84,0.229
	c-0.241-0.03-0.479-0.183-0.728-0.253L78.136,123.509z"/>
<path fill="#FFFFFF" stroke="#FFFFFF" stroke-width="0.0191" d="M77.379,123.794c0.239,0.042,0.608,0.122,0.875,0.155
	c-0.266-0.033-0.545-0.114-0.754-0.192L77.379,123.794z"/>
<path d="M73.796,124.095c0.095,0.013,0.095,0.013,0.297,0.037c0.216,0.028,0.431,0.157,0.594,0.248
	c0.142,0.193,0.256,0.36,0.407,0.444c0.207,0.097,0.379,0.048,0.388-0.016c0.015-0.12,0.109-0.243,0.323-0.216
	c0.171,0.021,0.171,0.021,0.275,0.169c0.112,0.137,0.261,0.22,0.471,0.182c0.27-0.088,0.286-0.221,0.3-0.328
	c0.017-0.133,0.16-0.199,0.229-0.19c0.184,0.023,0.216,0.027,0.349-0.104c0.107-0.082,0.088-0.239,0.034-0.271
	c-0.095-0.16-0.05-0.206-0.045-0.251c0.09-0.11,0.139-0.033,0.315-0.152c0.06-0.019,0.08-0.177,0.035-0.279
	c-0.091-0.243-0.263-0.265-0.394-0.197c-0.133-0.018-0.152,0.129-0.152,0.129c-0.073,0.016-0.136,0.009-0.133-0.017
	c-0.051-0.155-0.051-0.155-0.122-0.248c-0.07-0.06-0.165-0.072-0.373-0.06c-0.191-0.011-0.282,0.209-0.315,0.205
	c-0.121-0.015-0.075-0.119-0.225-0.26c-0.149-0.193-0.418-0.104-0.504,0.02c-0.021,0.172-0.164,0.225-0.261,0.334
	c-0.158-0.02-0.061-0.13-0.265-0.252c-0.184-0.172-0.463-0.001-0.595,0.183c-0.154,0.147-0.377,0.184-0.542,0.163
	c-0.228-0.029-0.367-0.11-0.478-0.292c-0.121-0.215-0.311-0.444-0.531-0.324c-0.228,0.068-0.16,0.198-0.351,0.174
	c-0.086-0.133-0.16-0.213-0.139-0.383c-0.053-0.143-0.29-0.295-0.483-0.146c-0.18,0.1-0.161,0.212-0.281,0.196
	c-0.096-0.012-0.098-0.244-0.256-0.276c-0.197-0.063-0.331-0.08-0.419-0.04c-0.118,0.067-0.118,0.067-0.137,0.214
	c-0.003,0.025-0.067,0.018-0.133-0.017c-0.12-0.015-0.102-0.161-0.196-0.173c-0.028-0.087-0.231-0.112-0.349,0.104
	c-0.069,0.088-0.088,0.246-0.035,0.279c0.103,0.153,0.207,0.096,0.268,0.226c-0.006,0.044-0.012,0.095-0.106,0.231
	c-0.099,0.013-0.118,0.166-0.035,0.272c0.096,0.16,0.096,0.16,0.311,0.188c0.07,0.009,0.123,0.099,0.176,0.241
	c-0.014,0.106-0.03,0.24,0.208,0.393c0.194,0.088,0.361,0.045,0.503-0.06c0.137-0.117,0.137-0.117,0.308-0.096
	c0.215,0.027,0.199,0.16,0.184,0.28c0.068,0.073,0.224,0.163,0.417,0.116c0.199-0.039,0.351-0.174,0.537-0.324
	c0.179-0.048,0.421-0.121,0.636-0.094C73.708,124.084,73.708,124.084,73.796,124.095z"/>
<path fill="#E2001A" stroke="#FFFFFF" stroke-width="0.0443" d="M73.795,124.107c0.095,0.012,0.095,0.012,0.259,0.032
	c0.197,0.013,0.466,0.182,0.586,0.306c0.116,0.15,0.251,0.354,0.45,0.41c0.124,0.094,0.279,0.075,0.289,0.005
	c0.117-0.172,0.131-0.279,0.357-0.277c0.178,0.022,0.165,0.125,0.344,0.179c0.072,0.196,0.211,0.214,0.464,0.245
	c0.183-0.073,0.251-0.264,0.263-0.359c0.059-0.152,0.129-0.156,0.263-0.14c0.121,0.015,0.184,0.022,0.277-0.158
	c0.116-0.043,0.104-0.206,0.037-0.285c-0.025-0.106-0.016-0.176-0.006-0.259c0.04-0.008,0.116,0.003,0.226-0.106
	c0.133-0.079,0.152-0.237,0.076-0.344c-0.014-0.149-0.224-0.177-0.318-0.188c-0.125,0.023-0.139,0.131-0.212,0.146
	c-0.003,0.032-0.137,0.016-0.129-0.041c0.014-0.108,0.018-0.146-0.053-0.239c-0.171-0.033-0.239-0.042-0.425-0.053
	c-0.149,0.064-0.265,0.224-0.354,0.213c-0.095-0.012-0.029-0.029-0.171-0.279c-0.209-0.078-0.455-0.07-0.471,0.062
	c-0.103,0.154-0.225,0.3-0.293,0.292c-0.138,0.021-0.038-0.006-0.23-0.223c-0.232-0.094-0.465,0.013-0.65,0.15
	c-0.185,0.195-0.324,0.223-0.489,0.202c-0.228-0.029-0.367-0.092-0.449-0.32c-0.112-0.176-0.349-0.341-0.559-0.303
	c-0.241,0.163-0.162,0.211-0.317,0.153c-0.082-0.011-0.156-0.182-0.174-0.351c-0.021-0.138-0.264-0.207-0.479-0.183
	c-0.161,0.212-0.165,0.236-0.196,0.232c-0.12-0.015-0.162-0.193-0.291-0.294c-0.182-0.036-0.251-0.044-0.424-0.054
	c-0.093,0.072-0.098,0.11-0.111,0.218c-0.007,0.058-0.141,0.04-0.206,0c0.003-0.025,0.016-0.133-0.099-0.187
	c-0.094-0.012-0.304-0.038-0.442,0.093c-0.012,0.095-0.032,0.254,0.045,0.359c0.08,0.133,0.188,0.146,0.186,0.157
	c0.028,0.088,0.019,0.158-0.032,0.255c-0.117,0.056-0.2,0.206-0.037,0.285c0.015,0.194,0.097,0.205,0.229,0.222
	c0.134,0.017,0.203,0.038,0.182,0.196c-0.012,0.096,0.002,0.296,0.206,0.419c0.202,0.024,0.393,0.05,0.511-0.123
	c0.124-0.016,0.137-0.117,0.377-0.088c0.143,0.044,0.205,0.162,0.239,0.353c0.029,0.075,0.133,0.126,0.319,0.072
	c0.174-0.01,0.388-0.169,0.538-0.286c0.146-0.091,0.417-0.191,0.605-0.155C73.706,124.096,73.706,124.096,73.795,124.107z"/>
<path fill="#FFFFFF" stroke="#FFFFFF" stroke-width="0.0191" d="M71.654,123.316c-0.089-0.256-0.265-0.497-0.377-0.672
	c0.112,0.175,0.256,0.412,0.258,0.657L71.654,123.316z"/>
<path fill="#FFFFFF" stroke="#FFFFFF" stroke-width="0.0191" d="M72.271,123.49c0.003-0.341-0.172-0.581-0.344-0.642
	c0.172,0.061,0.386,0.306,0.382,0.646L72.271,123.49z"/>
<path fill="#FFFFFF" stroke="#FFFFFF" stroke-width="0.0191" d="M73.282,123.779c-0.17-0.183-0.261-0.535-0.274-0.729
	c0.013,0.194,0.01,0.534,0.167,0.716L73.282,123.779z"/>
<path fill="#FFFFFF" stroke="#FFFFFF" stroke-width="0.0191" d="M72.922,123.733c-0.271,0.101-0.411,0.198-0.541,0.356
	c0.129-0.158,0.235-0.337,0.45-0.406L72.922,123.733z"/>
<path fill="#FFFFFF" stroke="#FFFFFF" stroke-width="0.0191" d="M72.094,123.552c-0.253-0.031-0.291-0.036-0.407,0.025
	c-0.097,0.007-0.3,0.13-0.343,0.221c0.042-0.091,0.151-0.187,0.247-0.231c0.144-0.06,0.175-0.056,0.439-0.106L72.094,123.552z"/>
<path fill="#FFFFFF" stroke="#FFFFFF" stroke-width="0.0191" d="M71.418,123.209c-0.118,0.062-0.374,0.056-0.765,0.038
	c0.391,0.018,0.507-0.032,0.698-0.117L71.418,123.209z"/>
<path fill="#FFFFFF" stroke="#FFFFFF" stroke-width="0.0191" d="M74.125,123.885c0.538,0.068,1.122-0.019,1.555-0.035
	c0.42,0.027,1.288-0.16,1.632-0.283c-0.344,0.123-1.125,0.347-1.641,0.354c-0.434,0.028-1.01,0.052-1.549-0.016l-0.588-0.075
	c-0.577-0.072-1.142-0.24-1.548-0.375c-0.455-0.128-1.155-0.538-1.457-0.743c0.302,0.205,1.007,0.591,1.51,0.68
	c0.417,0.123,0.922,0.348,1.498,0.42L74.125,123.885z"/>
<path fill="#FFFFFF" stroke="#FFFFFF" stroke-width="0.0191" d="M76.069,123.872c0.062-0.235,0.343-0.419,0.482-0.562
	c-0.139,0.144-0.332,0.337-0.451,0.567L76.069,123.872z"/>
<path fill="#FFFFFF" stroke="#FFFFFF" stroke-width="0.0191" d="M75.431,123.889c0.08-0.33,0.31-0.52,0.46-0.54
	c-0.15,0.021-0.419,0.204-0.542,0.529L75.431,123.889z"/>
<path fill="#FFFFFF" stroke="#FFFFFF" stroke-width="0.0191" d="M74.341,123.912c0.247-0.13,0.423-0.448,0.447-0.638
	c-0.024,0.189-0.187,0.51-0.34,0.651L74.341,123.912z"/>
<path fill="#FFFFFF" stroke="#FFFFFF" stroke-width="0.0191" d="M74.74,123.963c0.237,0.165,0.348,0.295,0.402,0.475
	c-0.054-0.18-0.112-0.38-0.341-0.506L74.74,123.963z"/>
<path fill="#FFFFFF" stroke="#FFFFFF" stroke-width="0.0191" d="M75.584,123.992c0.254,0.031,0.292,0.037,0.353,0.121
	c0.13,0.036,0.296,0.204,0.315,0.304c-0.019-0.1-0.101-0.219-0.214-0.29c-0.091-0.09-0.123-0.094-0.366-0.207L75.584,123.992z"/>
<path fill="#FFFFFF" stroke="#FFFFFF" stroke-width="0.0191" d="M76.295,123.824c0.129,0.094,0.378,0.15,0.761,0.23
	c-0.383-0.08-0.577-0.169-0.645-0.287L76.295,123.824z"/>
<polygon fill="#ECEDED" stroke="#000000" stroke-width="0.0191" points="76.173,105.232 77.788,109.992 82.824,109.015 
	80.678,113.656 84.946,116.401 80.067,117.958 81.172,122.985 76.414,120.892 73.733,125.06 72.07,120.276 67.099,121.279 
	69.229,116.762 64.911,113.875 69.794,112.284 68.867,107.255 73.427,109.52 "/>
<path fill="#283A59" d="M75.6,109.419c3.135,0.395,5.351,3.302,4.962,6.383c-0.396,3.136-3.257,5.357-6.393,4.962
	c-3.081-0.389-5.347-3.256-4.952-6.392C69.605,111.29,72.519,109.029,75.6,109.419z"/>
<path fill="#FFFFFF" stroke="#FFFFFF" stroke-width="0.1257" d="M70.272,117.225l-0.28-0.151l0.628-4.983l0.883-0.181
	c0.324,0.041,0.381,1.156,0.28,1.961c-0.088,0.694-0.411,2.138-0.791,2.089l-0.565,0.036L70.272,117.225z M70.5,115.419l0.483-0.046
	c0.212,0.026,0.409-0.861,0.494-1.534c0.08-0.631,0.077-1.338-0.119-1.363l-0.501,0.102L70.5,115.419z"/>
<path fill="#FFFFFF" stroke="#FFFFFF" stroke-width="0.1257" d="M72.474,118.244c-0.652-0.083-0.604-2.075-0.432-3.443
	c0.172-1.367,0.62-3.311,1.272-3.227c0.653,0.082,0.605,2.075,0.433,3.441C73.576,116.384,73.128,118.326,72.474,118.244z
	 M73.22,112.333c-0.381-0.049-0.683,1.016-0.871,2.507c-0.188,1.491-0.159,2.597,0.222,2.645c0.379,0.048,0.706-1.059,0.894-2.55
	C73.653,113.443,73.6,112.38,73.22,112.333z"/>
<path fill="#FFFFFF" stroke="#FFFFFF" stroke-width="0.1257" d="M74.178,117.969l0.748,0.095l-0.084,0.668l-1.124-0.141l0.888-7.044
	l0.376,0.047L74.178,117.969z"/>
<path fill="#FFFFFF" stroke="#FFFFFF" stroke-width="0.1257" d="M75.611,118.807l-0.346-0.076l0.883-7.002l0.346,0.077
	L75.611,118.807z"/>
<path fill="#FFFFFF" stroke="#FFFFFF" stroke-width="0.1257" d="M77.948,113.5c-0.024-0.332-0.186-0.665-0.354-0.687
	c-0.316-0.04-0.69,0.87-0.898,2.512c-0.185,1.47-0.26,2.788,0.174,2.842c0.293,0.037,0.475-0.384,0.622-0.897l0.191,0.323
	c-0.114,0.911-0.79,1.156-0.921,1.14c-0.396-0.05-0.671-1.02-0.369-3.419c0.242-1.92,0.717-3.211,1.226-3.146
	c0.451,0.058,0.586,0.874,0.586,1.15L77.948,113.5z"/>
<path fill="#FFFFFF" stroke="#FFFFFF" stroke-width="0.1257" d="M79.288,118.079l-1.365,0.425l0.735-5.83l1.213,0.647l-0.064,0.511
	l-0.908-0.571l-0.244,1.937l0.884,0.111l-0.087,0.699l-0.885-0.111l-0.26,2.061l1.046-0.387L79.288,118.079z"/>
<path fill="#7B94C7" d="M36.178,118.444c-1.152,3.205-4.636,4.888-7.783,3.758l-1.265-0.455c-3.147-1.131-4.764-4.645-3.612-7.851
	l0.239-0.665c1.151-3.205,4.635-4.888,7.782-3.757l1.265,0.455c3.146,1.129,4.764,4.645,3.612,7.851L36.178,118.444z"/>
<path fill="#6287BF" d="M37.741,112.149c-0.402,1.28-1.767,1.992-3.047,1.59l-7.351-2.31c-1.28-0.402-1.991-1.767-1.589-3.047l0,0
	c0.402-1.28,1.766-1.992,3.047-1.59l7.35,2.309C37.431,109.505,38.143,110.869,37.741,112.149L37.741,112.149z"/>
<circle fill="#7B94C7" cx="31.092" cy="111.219" r="0.947"/>
<path opacity="0.55" fill="#F4BB84" d="M46.368,81.926c0,0,5.84,6.534,12.597,0"/>
<path fill="#ECEDED" d="M58.548,8.39c0,2.835-5.287,8.67-5.287,8.67s-4.979-5.835-4.979-8.67s2.298-5.133,5.134-5.133
	C56.25,3.257,58.548,5.555,58.548,8.39z"/>
<circle fill="#9C9E9F" cx="53.415" cy="8.363" r="3.682"/>
<path fill="#87888A" d="M54.34,5.881c1.026,0,1.954,0.422,2.622,1.099c-0.547-1.348-1.867-2.298-3.41-2.298
	c-2.034,0-3.683,1.648-3.683,3.682c0,1.007,0.405,1.919,1.06,2.584c-0.173-0.428-0.272-0.895-0.272-1.384
	C50.657,7.529,52.306,5.881,54.34,5.881z"/>
<path fill="#F4BB84" d="M48.282,74.441c0,0,5.247,5.838,8.815,0"/>
<path fill="#41281B" d="M71.677,66.187c0,0-5.908,6.697-13.091,1.104c-7.914-6.163-13.142,7.641-1.783,7.929
	C64.895,75.425,69.153,72.339,71.677,66.187z"/>
<path fill="#41281B" d="M34.15,66.187c0,0,5.908,6.697,13.09,1.104c7.915-6.163,13.144,7.641,1.784,7.929
	C40.933,75.425,36.674,72.339,34.15,66.187z"/>
<path fill="#ECEDED" d="M38.637,108.388c-0.268,0.806-1.137,1.242-1.943,0.976l-8.547-2.832c-0.807-0.268-1.242-1.137-0.976-1.942
	l0,0c0.268-0.806,1.137-1.242,1.943-0.976l8.546,2.832C38.467,106.713,38.903,107.582,38.637,108.388L38.637,108.388z"/>
<text transform="matrix(0.9529 0.3033 -0.3033 0.9529 27.1011 105.1689)" font-family="'Foo'" font-size="1.9268">COLLEGUE</text>
<path fill="#41281B" d="M32.89,41.481c0,0,5.764-3.396,10.81,0v3.081c0,0-4.902-2.524-10.81,0V41.481z"/>
<rect x="61.022" y="55.153" fill="#58585A" width="3.281" height="20.358"/>
<rect x="61.022" y="55.153" fill="#3E3D40" width="0.729" height="20.358"/>
<ellipse transform="matrix(-0.7296 0.6838 -0.6838 -0.7296 157.9632 82.5525)" fill="#F4BB84" cx="62.663" cy="72.502" rx="8.005" ry="6.343"/>
<path fill="#EAB18B" d="M67.633,69.486c1.176,1.255,1.608,2.982,1.367,4.774c1.427-2.663,1.354-5.676-0.438-7.589
	c-2.395-2.557-6.952-2.179-10.178,0.846c-1.643,1.539-2.62,3.468-2.87,5.328c0.479-0.896,1.129-1.752,1.941-2.514
	C60.681,67.31,65.238,66.931,67.633,69.486z"/>
<path fill="#6287BF" d="M64.548,86.025c0,0-3.995-0.957-5.419-5.782c-1.424-4.825,11.005-16.475,13.968-13.09
	c2.963,3.383,2.668,8.359,2.668,8.359L64.548,86.025z"/>
<path fill="#7B94C7" d="M92.173,112.73c0,0-14.644-13.737-28.001-26.995c2.244-2.589,11.593-10.223,11.593-10.223
	S110.145,98.351,92.173,112.73z"/>
<path opacity="0.51" fill="#6287BF" d="M64.172,85.735c4.972,4.362,12.08,12.079,21.895,21.219L71.018,79.477
	C71.018,79.477,65.94,81.635,64.172,85.735z"/>
<circle cx="62.73" cy="50.562" r="3.174"/>
<circle fill="#FFFFFF" cx="62.13" cy="49.534" r="0.6"/>
<circle fill="#FFFFFF" cx="61.502" cy="50.155" r="0.369"/>
<path fill="#41281B" d="M54.97,40.433c0,0,8.305-4.893,15.569,0v4.437c0,0-7.058-3.634-15.569,0V40.433z"/>
<circle opacity="0.1" fill="#FFFFFF" cx="62.755" cy="47.272" r="8.665"/>
<circle fill="none" stroke="#B1B3B4" stroke-width="1.8926" cx="62.949" cy="46.429" r="9.035"/>
<g>
	<path fill="#58585A" d="M62.754,36.946c5.341,0,9.672,4.331,9.672,9.672c0,5.342-4.331,9.672-9.672,9.672s-9.672-4.33-9.672-9.672
		C53.083,41.277,57.413,36.946,62.754,36.946 M62.754,35.128c-6.336,0-11.49,5.154-11.49,11.49s5.154,11.49,11.49,11.49
		s11.49-5.154,11.49-11.49S69.09,35.128,62.754,35.128L62.754,35.128z"/>
</g>
<g opacity="0.17">
	<g>
		<path fill="#F6F6F6" d="M66.19,43.238c-0.565-0.563-1.102-1.08-1.47-1.421c0.511-0.467,1.073-0.774,1.45-0.806
			c0.39,0.031,0.959,0.349,1.461,0.819C67.278,42.167,66.754,42.676,66.19,43.238z"/>
		<path fill="#F6F6F6" d="M67.898,44.998c-0.335-0.363-0.845-0.894-1.407-1.459c0.562-0.564,1.069-1.09,1.401-1.447
			c0.469,0.504,0.782,1.069,0.813,1.456C68.674,43.929,68.366,44.491,67.898,44.998z"/>
		<path fill="#F6F6F6" d="M64.361,45.037c-0.47-0.503-0.782-1.069-0.813-1.456c0.031-0.382,0.339-0.944,0.807-1.45
			c0.334,0.362,0.844,0.893,1.406,1.458C65.2,44.153,64.693,44.68,64.361,45.037z"/>
		<path fill="#F6F6F6" d="M66.083,46.116c-0.39-0.031-0.96-0.35-1.462-0.82c0.354-0.335,0.877-0.843,1.441-1.403
			c0.565,0.562,1.103,1.077,1.471,1.418C67.022,45.777,66.461,46.085,66.083,46.116z"/>
	</g>
</g>
</svg>
